<?xml version="1.0" encoding="UTF-8" standalone="no"?>
<!-- Created with Inkscape (http://www.inkscape.org/) -->

<svg
   xmlns:dc="http://purl.org/dc/elements/1.1/"
   xmlns:cc="http://creativecommons.org/ns#"
   xmlns:rdf="http://www.w3.org/1999/02/22-rdf-syntax-ns#"
   xmlns:svg="http://www.w3.org/2000/svg"
   xmlns="http://www.w3.org/2000/svg"
   xmlns:sodipodi="http://sodipodi.sourceforge.net/DTD/sodipodi-0.dtd"
   xmlns:inkscape="http://www.inkscape.org/namespaces/inkscape"
   width="256"
   height="256"
   viewBox="0 0 256 256"
   id="svg2"
   version="1.1"
   inkscape:version="0.91 r13725"
   sodipodi:docname="avatar.svg"
   inkscape:export-filename="D:\Documents\Valentin\Progammation\CommunicationAnimale.github.io\img\avatar.png"
   inkscape:export-xdpi="90"
   inkscape:export-ydpi="90">
  <defs
     id="defs4">
    <pattern
       y="0"
       x="0"
       height="6"
       width="6"
       patternUnits="userSpaceOnUse"
       id="EMFhbasepattern" />
  </defs>
  <sodipodi:namedview
     id="base"
     pagecolor="#ffffff"
     bordercolor="#666666"
     borderopacity="1.0"
     inkscape:pageopacity="0.0"
     inkscape:pageshadow="2"
     inkscape:zoom="2.2539062"
     inkscape:cx="128"
     inkscape:cy="128"
     inkscape:document-units="px"
     inkscape:current-layer="layer1"
     showgrid="false"
     inkscape:window-width="1304"
     inkscape:window-height="746"
     inkscape:window-x="-8"
     inkscape:window-y="274"
     inkscape:window-maximized="1"
     units="px" />
  <metadata
     id="metadata7">
    <rdf:RDF>
      <cc:Work
         rdf:about="">
        <dc:format>image/svg+xml</dc:format>
        <dc:type
           rdf:resource="http://purl.org/dc/dcmitype/StillImage" />
        <dc:title />
      </cc:Work>
    </rdf:RDF>
  </metadata>
  <g
     inkscape:label="Calque 1"
     inkscape:groupmode="layer"
     id="layer1"
     transform="translate(0,-796.36216)">
    <circle
       style="opacity:1;fill:#f98752;fill-opacity:1;stroke:#270200;stroke-width:7.75757599;stroke-opacity:1"
       id="path3554"
       cx="128"
       cy="924.36218"
       r="124.12122" />
    <g
       transform="matrix(2.1598321,0,0,2.1598321,-1003.0932,-48.694297)"
       id="g3556">
      <path
         id="path3560"
         style="fill:#000000"
         d="m 528.74107,436.61644 c -0.12625,-0.29349 -0.44048,-0.98203 -0.69828,-1.5301 -0.5106,-1.0855 -1.00559,-2.26808 -1.00559,-2.40247 0,-0.1395 0.64083,-0.42706 0.80841,-0.36275 0.16367,0.0628 0.48538,0.71867 1.51832,3.09543 0.34608,0.79631 0.59409,1.48048 0.55113,1.52036 -0.043,0.0399 -0.27304,0.10417 -0.51128,0.14284 l -0.43316,0.0703 -0.22955,-0.53362 z m -1.23907,0.60885 c -0.0861,-0.13926 0.0659,-1.99022 0.16336,-1.99022 0.0879,0 0.18154,0.19221 0.58581,1.20275 0.15706,0.3926 0.26908,0.72772 0.24894,0.74471 -0.11127,0.0939 -0.94447,0.12955 -0.99811,0.0428 z m -6.23334,0.9794 c -0.70851,-0.52557 -2.50683,-2.43762 -3.58793,-3.81485 -1.20635,-1.5368 -1.73676,-2.07115 -1.86125,-1.87509 -0.046,0.0725 -0.0844,0.62421 -0.0853,1.22606 -0.001,0.95401 -0.023,1.08603 -0.16873,1.03012 -0.0919,-0.0353 -0.21631,-0.0641 -0.27644,-0.0641 -0.0708,0 -0.087,-0.2514 -0.046,-0.71316 0.0348,-0.39224 0.0946,-1.15621 0.13273,-1.69771 0.0621,-0.88084 0.0959,-1.00189 0.32074,-1.14923 0.24292,-0.15918 0.27159,-0.14596 0.85684,0.39501 0.85449,0.78984 1.10473,1.04824 2.40005,2.47834 0.6316,0.69732 1.67936,1.79381 2.32834,2.43665 l 1.17997,1.16879 -0.30648,0.44243 c -0.16856,0.24333 -0.34429,0.44242 -0.39049,0.44242 -0.0462,0 -0.26943,-0.13754 -0.49606,-0.30565 z m 14.02082,4.41377 c -0.21095,-0.60514 -0.14699,-1.37383 0.15077,-1.81203 0.31935,-0.46998 0.44096,-0.4931 0.54595,-0.10377 0.18537,0.68737 -0.0385,1.80288 -0.42649,2.12487 -0.12618,0.10473 -0.17364,0.068 -0.27023,-0.20907 z m -12.58424,1.91351 c -0.0772,-0.18627 -0.10905,-0.52752 -0.0764,-0.81721 l 0.0561,-0.49739 -0.67643,-0.63767 c -0.80919,-0.76283 -0.83224,-0.9079 -0.37188,-2.34026 0.725,-2.25577 1.6753,-3.41618 2.93445,-3.58321 0.4655,-0.0618 0.5599,-0.035 1.04005,0.29517 0.29044,0.1997 0.5982,0.48696 0.6839,0.63836 0.14301,0.25262 0.13751,0.2953 -0.0669,0.51869 -0.37589,0.41083 -0.53932,0.84061 -0.87954,2.31295 -0.18009,0.77937 -0.43639,1.65475 -0.56954,1.9453 -0.20848,0.45489 -0.91274,1.37519 -1.7141,2.23989 l -0.22723,0.24519 -0.13247,-0.31981 z m 9.24472,0.13151 c -0.48534,-0.26362 -0.61037,-0.28457 -1.53938,-0.25801 -0.90746,0.0259 -1.04151,0.005 -1.30749,-0.20421 -0.61189,-0.48133 -0.85549,-1.58272 -0.56472,-2.55326 0.16265,-0.54288 1.11147,-1.57694 1.69958,-1.85226 0.24431,-0.11438 0.6281,-0.29206 0.85287,-0.39484 0.5976,-0.2733 0.83307,-0.70446 0.75904,-1.3899 l -0.0596,-0.55217 0.344,0.0607 c 0.73352,0.12939 1.63322,0.40122 2.1084,0.63701 0.39989,0.19842 0.57994,0.38669 0.92445,0.9666 0.23531,0.3961 0.42784,0.75423 0.42784,0.79583 0,0.0416 -0.16257,0.31199 -0.36127,0.60085 -0.44779,0.651 -0.52456,0.9829 -0.37829,1.6356 0.13996,0.62452 0.0681,1.00204 -0.32211,1.69281 -0.47241,0.83623 -0.74232,1.03583 -1.44899,1.07155 -0.49575,0.0251 -0.70218,-0.0216 -1.1343,-0.25628 z m -9.75852,0.38764 c -0.13689,-0.11085 -0.33977,-0.20154 -0.45085,-0.20154 -0.31459,0 -1.11674,-0.8089 -1.31377,-1.32483 -0.26903,-0.70446 -0.0821,-2.13363 0.31355,-2.39786 0.22274,-0.14872 0.27473,-0.0779 0.27473,0.37406 0,0.50602 0.22137,0.87165 0.87162,1.43964 0.36666,0.32028 0.39619,0.38881 0.39619,0.91961 0,0.31545 0.0684,0.73739 0.15212,0.93764 0.18234,0.43642 0.0949,0.52737 -0.24359,0.25328 z m -5.38114,0.0656 c -0.2839,-0.36093 -0.3762,-0.8076 -0.28817,-1.39461 0.0557,-0.37139 0.17962,-0.58667 0.57219,-0.99397 0.41926,-0.43498 0.56366,-0.5199 0.88407,-0.5199 0.21063,0 0.41153,-0.0462 0.44644,-0.1027 0.0349,-0.0565 0.11003,-0.51245 0.16693,-1.01326 0.11724,-1.03183 0.27645,-1.41165 0.72585,-1.73166 0.29565,-0.21053 0.31847,-0.21246 0.41024,-0.0347 0.26286,0.50909 0.35862,1.34731 0.28624,2.50575 l -0.0746,1.19412 -0.39585,0.1186 c -0.48969,0.14672 -0.70964,0.38391 -1.12572,1.21397 -0.31905,0.63648 -0.534,0.82319 -1.11308,0.96684 -0.21928,0.0544 -0.32178,0.0112 -0.49453,-0.20844 z m -1.02492,-0.18133 c -2.64176,-2.41382 -5.65611,-4.31934 -8.48516,-5.36388 l -0.77264,-0.28528 0.62536,-0.83697 c 1.28182,-1.71557 3.00783,-3.09248 4.70132,-3.75046 0.95505,-0.37107 0.98478,-0.37001 2.61048,0.0929 1.49349,0.42529 2.82405,1.35612 3.25792,2.27916 0.33218,0.70671 0.49858,2.55302 0.33437,3.70993 -0.12864,0.90621 -0.13184,0.91289 -0.5666,1.18244 -0.96359,0.5974 -1.37722,1.23053 -1.36976,2.09665 0.005,0.58661 0.19994,1.04619 0.60773,1.43312 0.26732,0.25366 0.34333,0.41551 0.19273,0.4104 -0.0436,-10e-4 -0.55467,-0.4371 -1.13575,-0.96805 z m 8.15982,1.45495 c -0.27695,-0.0745 -0.51733,-0.1545 -0.53416,-0.17777 -0.0168,-0.0233 -0.092,-0.2928 -0.16703,-0.59896 l -0.13643,-0.55666 0.6493,-0.69412 c 1.21877,-1.30291 1.44631,-1.77277 2.00921,-4.14889 0.33104,-1.39738 0.64058,-2.01431 1.13859,-2.2693 0.39179,-0.2006 2.67642,-0.59648 3.4423,-0.59648 0.53948,0 0.65372,0.0382 0.92438,0.30883 0.35994,0.35995 0.38269,0.57246 0.10928,1.02083 -0.14565,0.23885 -0.37845,0.39256 -0.87123,0.57522 -0.76939,0.2852 -1.80326,1.21799 -2.18983,1.97575 -0.29765,0.58346 -0.31293,1.88673 -0.0294,2.51143 l 0.19177,0.42262 -0.65485,0.7924 c -0.64257,0.77755 -0.80979,0.87258 -1.22378,0.69552 -0.11503,-0.0492 -0.35156,0.0825 -0.73324,0.40833 -0.6267,0.53496 -0.95651,0.59172 -1.92483,0.33125 z m -4.99029,0.58938 c -0.11622,-0.0234 -0.3902,-0.24468 -0.60884,-0.4918 l -0.39753,-0.44931 0.48144,-0.96174 c 0.56637,-1.13142 0.89764,-1.55652 1.26818,-1.62735 0.23146,-0.0443 0.30132,0.0107 0.48797,0.38366 0.32105,0.64156 0.78695,1.08046 1.41939,1.33716 l 0.5613,0.22782 -0.26776,0.40463 c -0.29008,0.43834 -0.56778,0.59673 -1.62352,0.92595 -0.85438,0.26643 -1.05455,0.30447 -1.32063,0.25098 z m -8.18539,1.60969 c -0.71671,-0.19261 -1.33214,-0.54265 -2.22414,-1.26505 -1.15076,-0.93197 -1.73524,-1.77544 -2.15944,-3.11633 -0.29277,-0.92545 -0.4971,-2.96732 -0.3086,-3.08383 0.13875,-0.0857 2.05054,1.00128 3.21051,1.82548 0.55203,0.39223 1.45534,1.17367 2.00737,1.73653 0.59405,0.60571 1.57501,1.43461 2.40355,2.031 0.76993,0.55419 1.39988,1.02584 1.39988,1.0481 0,0.12601 -1.54441,0.71151 -2.21867,0.84112 -0.9706,0.18657 -1.36467,0.1834 -2.11046,-0.017 z m -10.09222,0.0228 c -0.80413,-0.3716 -1.54826,-1.10567 -1.9608,-1.93429 -0.34006,-0.68306 -0.35719,-0.77181 -0.34263,-1.77554 0.0347,-2.39124 1.37213,-5.33224 3.22245,-7.08604 1.46579,-1.38933 2.4796,-2.1223 3.50899,-2.53695 2.2236,-0.89571 4.54058,-1.33417 6.13034,-1.16009 l 0.73281,0.0802 -0.83846,0.4396 c -1.83038,0.95965 -3.31492,2.24955 -4.4306,3.84969 -0.29509,0.42323 -0.60635,0.75839 -0.7052,0.75935 -0.0973,9.5e-4 -0.53426,0.40933 -0.97098,0.90753 -0.87345,0.9964 -1.06599,1.40367 -1.81951,3.84862 -0.22387,0.72637 -0.66995,2.10515 -0.99129,3.06396 -0.65975,1.96854 -0.64605,1.95476 -1.53512,1.54392 z m 21.72592,0.34734 -0.35513,-0.10728 1.04186,-0.99581 1.04185,-0.99581 0.65664,-0.002 c 0.56245,-0.002 0.70643,-0.0439 1.00368,-0.29497 0.67885,-0.57342 0.68522,-0.57644 0.93326,-0.44369 0.19637,0.1051 0.22035,0.18309 0.16422,0.53415 -0.13061,0.8168 -0.35238,1.10407 -1.16116,1.50413 -1.52347,0.75358 -2.61338,1.01616 -3.32522,0.80112 z m 18.08985,-3.21193 c -0.0996,-0.25956 0.0436,-0.47545 0.31532,-0.47545 0.30165,0 0.54029,0.24921 0.45399,0.4741 -0.081,0.21118 -0.68839,0.21224 -0.76931,0.001 z m 0.95793,0.30941 c 0.26184,-0.26185 0.20788,-0.73659 -0.11235,-0.9885 -0.36928,-0.29048 -0.73015,-0.27657 -1.04707,0.0404 -0.31639,0.3164 -0.32405,0.47511 -0.0403,0.83578 0.16892,0.21476 0.31209,0.27839 0.62636,0.27839 0.22948,0 0.47989,-0.0725 0.57341,-0.16603 z m -1.37422,0.28263 c -0.89134,-0.40483 -1.17781,-1.28139 -0.59919,-1.8334 0.56238,-0.53652 1.24963,-0.63744 2.00518,-0.29445 0.45167,0.20504 0.87266,0.7314 0.87341,1.09202 7.4e-4,0.3761 -0.31716,0.79502 -0.76963,1.01406 -0.56158,0.27187 -0.94691,0.27742 -1.50977,0.0218 z m 1.5717,0.37458 c 0.18789,-0.0785 0.49539,-0.31789 0.68333,-0.53195 1.23326,-1.40463 -1.02577,-3.26151 -2.7433,-2.25494 -0.91963,0.53895 -1.0444,1.54709 -0.28541,2.3061 0.59207,0.59209 1.58961,0.79658 2.34538,0.48079 z m 3.77718,2.07093 c -0.2159,-0.21792 -0.44274,-0.48783 -0.50409,-0.59982 -0.10958,-0.20003 -0.12388,-0.19956 -0.81223,0.0264 -0.82076,0.26945 -1.27412,0.28511 -2.06972,0.0715 -0.31959,-0.0858 -1.15276,-0.22706 -1.85149,-0.31391 -1.29439,-0.16087 -2.54077,-0.51409 -3.15613,-0.89441 -0.45788,-0.283 -1.46797,-1.35174 -1.69803,-1.79664 -0.26209,-0.50685 -0.16516,-0.98365 0.40009,-1.96782 0.80119,-1.39498 0.84542,-1.87659 0.32951,-3.58776 -0.14058,-0.46631 -0.28593,-1.13794 -0.32299,-1.49251 -0.0873,-0.83544 0.096,-1.15678 0.95464,-1.67294 0.62082,-0.37322 0.6685,-0.38436 1.3858,-0.3238 2.53736,0.21423 5.12844,1.51545 7.07531,3.55316 l 0.95085,0.99523 0.032,-0.5567 c 0.0176,-0.30619 -0.0378,-0.82918 -0.12304,-1.1622 -0.24245,-0.94685 -0.41804,-2.74074 -0.34836,-3.55906 0.10769,-1.26471 0.14616,-1.36316 0.63372,-1.62181 0.37742,-0.20023 2.61545,-0.78252 3.90471,-1.01593 1.20876,-0.21884 3.43577,-1.04744 4.32656,-1.60978 0.53685,-0.33891 1.2534,-0.61866 2.82622,-1.10339 1.48036,-0.45622 1.73532,-0.48137 2.51958,-0.24846 0.58752,0.17448 0.60847,0.27152 0.11384,0.52731 -0.29088,0.15042 -2.84198,0.84239 -4.27101,1.15848 -0.34864,0.0771 -1.20442,0.36063 -1.90171,0.63004 -1.83835,0.71026 -3.4113,1.21855 -3.77089,1.21855 -0.30859,0 -2.60332,0.37661 -2.96551,0.4867 -0.10233,0.0311 -0.26873,0.2077 -0.36978,0.39244 -0.18858,0.34475 -0.19039,0.42937 -0.10098,4.72052 0.009,0.43582 -0.0506,1.13391 -0.13265,1.5513 l -0.14915,0.75889 0.45457,0.64805 c 0.25001,0.35643 0.54363,0.8945 0.65249,1.19571 0.262,0.72492 0.65057,1.06925 1.09018,0.96606 0.17937,-0.0421 0.50246,-0.0913 0.71798,-0.10937 0.21552,-0.0181 0.48576,-0.0831 0.60055,-0.14452 0.25392,-0.1359 0.57404,-0.14734 0.49389,-0.0177 -0.032,0.0517 -0.38821,0.17494 -0.79166,0.27381 -0.93528,0.22921 -1.11729,0.35794 -1.02515,0.72508 l 0.0704,0.28057 1.11338,0 c 0.61236,0 1.44039,-0.054 1.84006,-0.12001 0.64067,-0.10581 0.74762,-0.0991 0.90356,0.0569 0.15139,0.15139 0.33124,0.16766 1.24821,0.11291 1.55703,-0.093 3.10317,-0.33099 3.74016,-0.57576 0.76905,-0.29553 0.99285,-0.2757 1.21079,0.10728 l 0.18183,0.31953 -0.53237,-0.0706 c -0.4431,-0.0588 -0.58192,-0.034 -0.82783,0.14782 -0.22701,0.16784 -0.53127,0.23575 -1.31346,0.29317 -0.79924,0.0587 -1.01801,0.10865 -1.01801,0.23256 0,0.12407 -0.0847,0.14324 -0.39619,0.0896 -0.2179,-0.0375 -0.76464,-0.0983 -1.21498,-0.13514 -0.78797,-0.0644 -0.8188,-0.0584 -0.8188,0.16001 0,0.30948 -0.38576,0.30007 -1.79606,-0.0438 -0.61013,-0.14875 -1.31139,-0.30896 -1.55835,-0.35601 l -0.44902,-0.0855 0,0.3614 c 0,0.43555 -0.19742,0.84032 -0.58341,1.19613 -0.2731,0.25175 -0.29215,0.25494 -0.40623,0.0679 -0.20239,-0.33178 -0.81814,-1.13808 -1.52122,-1.99199 l -0.6708,-0.81469 -0.57501,0.28202 c -0.62204,0.30508 -0.66139,0.39821 -0.4658,1.10243 0.088,0.31701 0.18081,0.41327 0.50125,0.52018 0.21627,0.0721 0.48831,0.13842 0.60452,0.14726 0.20893,0.0159 1.09942,1.14239 0.92919,1.17545 -0.0462,0.009 -0.36299,0.0738 -0.70399,0.14403 l -0.62002,0.12772 0.0585,0.43637 c 0.0322,0.24001 0.10676,0.45246 0.1657,0.47211 0.19049,0.0635 0.64602,0.45666 0.64602,0.55758 0,0.23552 -0.48006,0.0651 -0.84,-0.29821 z m -41.74942,0.3962 c -0.0188,-0.0768 -0.009,-0.11888 0.43541,-1.79612 0.22305,-0.84259 0.4809,-2.04693 0.573,-2.67631 0.17573,-1.20091 0.6063,-2.88145 0.85574,-3.34007 0.13672,-0.25137 0.14742,-0.21527 0.15478,0.52238 0.0213,2.12732 0.65434,3.74522 1.98396,5.07013 0.44898,0.44739 1.0971,0.99893 1.44026,1.22563 l 0.62393,0.41217 -0.9937,0.23857 c -0.54654,0.13121 -1.56249,0.28881 -2.25766,0.35022 -1.2142,0.10726 -2.7888,0.10357 -2.81572,-0.007 z m 45.01939,0 c 0,-0.23875 0.079,-0.25637 0.47491,-0.10585 0.34604,0.13157 0.24997,0.31716 -0.16419,0.31716 -0.24029,0 -0.31072,-0.0479 -0.31072,-0.21131 z m -2.03378,0.13563 c -0.29425,-0.0446 -0.41268,-0.24129 -0.14527,-0.24129 0.0799,0 0.29384,-0.0297 0.47543,-0.066 0.28692,-0.0574 0.33016,-0.0366 0.33016,0.15848 0,0.2295 -0.0514,0.24109 -0.66032,0.14884 z m -43.3961,1.09515 c 0,-0.0785 0.0497,-0.28537 0.11051,-0.45973 l 0.11051,-0.31702 1.87044,-0.0632 c 1.75713,-0.0594 2.49634,-0.15236 4.30467,-0.54135 0.45887,-0.0987 0.86246,-0.12827 1.05352,-0.0772 0.29601,0.0792 0.274,0.0977 -0.49741,0.41885 -1.18172,0.49196 -3.22103,0.96118 -4.68075,1.07699 -1.79949,0.14275 -2.27149,0.13499 -2.27149,-0.0374 z m -6.33623,0.18796 c -0.71468,-0.66852 -0.86393,-1.14145 -0.73945,-2.34321 0.2486,-2.40006 0.54354,-3.553 1.29059,-5.04498 0.49018,-0.97897 1.66619,-2.83356 1.7461,-2.75365 0.0299,0.0299 0.003,0.11663 -0.0605,0.19273 -0.21199,0.25543 -0.75737,1.73973 -0.90785,2.47076 -0.36102,1.75382 -0.31279,2.69722 0.19453,3.80539 0.43301,0.94583 1.6054,1.89477 2.83471,2.29441 0.17352,0.0564 0.16709,0.1019 -0.0847,0.59873 -0.25181,0.49694 -0.29526,0.53266 -0.57361,0.47153 -0.22875,-0.0502 -0.50346,0.0369 -1.14257,0.36259 -0.69091,0.35204 -0.94869,0.42873 -1.44118,0.42873 -0.56649,0 -0.62841,-0.0268 -1.11614,-0.48303 z m 4.23858,1.68137 c -0.32376,-0.49958 -0.27457,-0.79711 0.40516,-2.45077 0.48336,-1.17594 1.10463,-3.00547 2.17583,-6.40748 0.52774,-1.67603 0.89613,-2.39407 1.6149,-3.14772 0.58212,-0.61035 0.60691,-0.6237 1.07514,-0.57873 0.57553,0.0553 3.75184,1.47328 4.62794,2.06605 1.90497,1.28892 3.14473,2.21308 3.83354,2.85766 1.77004,1.65637 2.29472,2.02518 2.88107,2.02518 0.24661,0 0.7677,0.49358 0.64774,0.61355 -0.10773,0.10773 -1.50129,0.3297 -2.09358,0.33346 -0.39945,0.003 -0.74772,-0.0658 -1.00369,-0.19682 -0.89933,-0.46047 -2.58689,-1.78322 -3.77281,-2.95724 -1.37824,-1.3644 -2.91588,-2.4753 -4.65116,-3.36032 -1.31615,-0.67126 -1.43341,-0.63333 -1.85995,0.60164 -0.1706,0.49393 -0.49737,1.87271 -0.72615,3.06396 -0.50926,2.65168 -1.03829,4.49421 -2.13323,7.42974 -0.0945,0.25324 -0.44133,0.49767 -0.69963,0.493 -0.0398,-7.4e-4 -0.1843,-0.17404 -0.32112,-0.38516 z m 47.28233,0.61888 c -0.40392,-1.29822 -0.51051,-1.83138 -0.71181,-3.56051 -0.0677,-0.5811 -0.22676,-1.31931 -0.35358,-1.64048 -0.30493,-0.77227 -1.2,-1.89691 -1.5106,-1.89806 -0.40209,-10e-4 -0.75625,-0.22933 -0.87181,-0.56083 -0.0613,-0.17575 -0.0993,-0.32955 -0.0845,-0.34179 0.0148,-0.0122 0.18863,-0.10458 0.38631,-0.20519 0.33051,-0.16822 0.36716,-0.1691 0.45567,-0.0109 0.0529,0.0946 0.32014,0.44425 0.59378,0.777 1.0296,1.25201 1.21206,1.53255 1.51295,2.32616 0.16985,0.44799 0.49771,1.60657 0.72858,2.57463 0.51001,2.13855 0.66531,2.59398 1.00563,2.94921 0.31314,0.32686 0.25038,0.62621 -0.13129,0.62621 -0.14287,0 -0.34413,0.0452 -0.44725,0.10035 -0.16656,0.0891 -0.23042,-0.0376 -0.57208,-1.13578 z m 11.76115,2.65816 c -1.17605,-0.13513 -3.49056,-0.50934 -4.52503,-0.73161 -0.70711,-0.15193 -1.54475,-0.25719 -2.04663,-0.25719 -0.88067,0 -2.86522,-0.25476 -3.31413,-0.42544 -0.14118,-0.0537 -0.2567,-0.17066 -0.2567,-0.25995 0,-0.12624 0.0881,-0.15098 0.39619,-0.11125 0.575,0.0742 2.30976,0.24546 3.82985,0.37821 0.72635,0.0634 1.72475,0.15786 2.21867,0.20984 1.96417,0.2067 3.25774,0.23767 4.24798,0.10171 0.74503,-0.10229 1.0451,-0.10622 1.21387,-0.0159 0.1752,0.0938 0.31283,0.0828 0.62993,-0.05 0.3034,-0.12709 0.60153,-0.15525 1.18195,-0.11162 0.42691,0.0321 0.80013,0.0823 0.82937,0.1115 0.11943,0.11943 -0.12736,0.29355 -0.98707,0.69644 -0.70311,0.3295 -1.01408,0.41915 -1.39551,0.40231 -0.26994,-0.0119 -0.75229,0.007 -1.07188,0.0419 -0.3196,0.0349 -0.74748,0.0444 -0.95086,0.0211 z m -3.77702,5.27572 c -0.0726,-0.15641 -0.13207,-0.36999 -0.13207,-0.47462 0,-0.14027 -0.0819,-0.19024 -0.31198,-0.19024 -0.17159,0 -0.43166,-0.0545 -0.57795,-0.12119 -0.19054,-0.0868 -0.30484,-0.0889 -0.40302,-0.007 -0.10089,0.0837 -0.20625,0.0606 -0.39932,-0.0878 -0.14425,-0.11084 -0.30675,-0.20258 -0.36111,-0.20387 -0.0544,-0.001 -0.2022,-0.0995 -0.32854,-0.21814 -0.19069,-0.17915 -0.27306,-0.19604 -0.48501,-0.0995 -0.21255,0.0968 -0.37594,0.0622 -0.97553,-0.20682 -0.83524,-0.37475 -0.80617,-0.36859 -0.80617,-0.1709 0,0.28334 -0.1774,0.26416 -0.94087,-0.10174 -1.04749,-0.50201 -2.1467,-1.22888 -2.81681,-1.86266 -0.30931,-0.29254 -0.61254,-0.50089 -0.67385,-0.463 -0.0613,0.0379 -0.11341,0.29192 -0.1158,0.56451 l -0.004,0.49562 -0.43331,-0.47544 c -0.23832,-0.2615 -0.54341,-0.72191 -0.67798,-1.02314 -0.13456,-0.30124 -0.52741,-0.85972 -0.873,-1.24107 -0.64729,-0.71428 -1.27882,-1.83676 -2.13286,-3.79091 -0.46672,-1.06792 -0.7869,-1.44631 -1.2238,-1.44631 -0.19999,0 -0.24988,0.056 -0.24988,0.28051 0,0.26045 -0.0132,0.26854 -0.18489,0.1132 -0.10169,-0.092 -0.42077,-0.26841 -0.70907,-0.39198 -0.60022,-0.25728 -0.61438,-0.25409 -2.43404,0.54897 -0.52297,0.23079 -1.09349,0.48241 -1.26781,0.55914 -0.17433,0.0767 -0.70632,0.31144 -1.1822,0.52159 -1.09966,0.48559 -2.31995,0.68304 -3.14798,0.50935 -1.38811,-0.29117 -1.77896,-0.68523 -2.89808,-2.92189 -0.80417,-1.60718 -0.86193,-1.76712 -0.86632,-2.39863 -0.003,-0.41071 0.0725,-0.88388 0.19163,-1.20395 l 0.19634,-0.52733 1.03811,-0.0322 c 0.97042,-0.0301 1.08295,-0.0112 1.72573,0.2896 0.3782,0.17698 0.75361,0.32179 0.83424,0.32179 0.27182,0 0.18588,0.96821 -0.12764,1.43799 -0.40727,0.61027 -1.09274,1.29079 -1.60627,1.59468 -0.53861,0.31873 -0.54067,0.51428 -0.008,0.79038 0.57913,0.30037 1.48895,0.4141 2.34331,0.29293 1.00632,-0.14273 1.08808,-0.16346 2.74611,-0.69649 2.14676,-0.69015 3.6078,-0.72616 5.22267,-0.12872 1.14255,0.42269 3.44989,3.03992 5.21648,5.91709 0.29788,0.48515 0.70732,1.05536 0.90987,1.26713 0.34274,0.35836 0.35472,0.39306 0.17283,0.50056 -0.18482,0.10924 -0.18109,0.1272 0.0687,0.33057 0.33515,0.27287 3.22868,1.69816 4.06749,2.00356 0.34861,0.12692 1.10009,0.32586 1.66996,0.44209 0.88967,0.18145 3.05706,0.91269 3.5911,1.21156 0.15177,0.0849 0.14085,0.1346 -0.0962,0.43746 -0.324,0.41401 -0.37378,0.41912 -0.54259,0.0556 z m -65.55748,1.35696 -0.17944,-0.30379 1.23922,-0.76727 c 1.46618,-0.90778 1.8249,-1.18622 3.33067,-2.58518 0.91551,-0.85057 1.12952,-1.10376 1.08451,-1.2831 -0.0447,-0.17811 0.0775,-0.32752 0.60265,-0.73672 0.36231,-0.28232 1.39935,-1.26342 2.30454,-2.18025 0.9052,-0.91682 1.67268,-1.66694 1.70553,-1.66694 0.0328,0 0.0873,0.072 0.12107,0.15991 0.0401,0.10448 -0.49607,0.81941 -1.54704,2.06281 -0.88463,1.04661 -1.77896,2.11004 -1.9874,2.3632 -0.31488,0.38242 -0.41159,0.44205 -0.57164,0.35248 -0.15664,-0.0877 -0.23324,-0.0508 -0.40989,0.19748 -0.28354,0.39845 -0.92118,0.99204 -1.06566,0.99204 -0.0624,0 -0.46908,0.31444 -0.9038,0.69876 -0.43472,0.38431 -1.14698,0.93919 -1.58279,1.23305 -1.07484,0.72476 -1.67645,1.22404 -1.83152,1.52002 l -0.12956,0.24728 -0.17945,-0.30378 z m 9.66369,8.34534 -0.34783,-0.35672 0.24218,-0.16504 c 0.27514,-0.1875 1.4278,-1.26324 3.01552,-2.81428 0.72064,-0.70399 1.08292,-1.13517 1.08292,-1.28888 0,-0.12704 0.20963,-0.47658 0.46585,-0.77675 0.49306,-0.57766 1.39545,-2.3081 1.70331,-3.26631 0.13794,-0.42936 0.15516,-0.61838 0.0689,-0.75652 -0.0882,-0.14126 -0.0654,-0.2869 0.0981,-0.62523 0.1172,-0.24259 0.27936,-0.78741 0.36034,-1.21071 0.081,-0.4233 0.24185,-1.16807 0.35747,-1.65506 0.11561,-0.48698 0.35996,-1.55104 0.54299,-2.36457 0.49843,-2.21545 0.50872,-2.24745 0.84627,-2.63191 0.55521,-0.63237 2.6551,-1.57026 5.06536,-2.26239 1.05969,-0.3043 3.73167,-0.90014 4.5694,-1.01896 1.10488,-0.1567 1.11401,-0.16037 1.33625,-0.53705 0.11969,-0.20287 0.38448,-0.4673 0.58841,-0.58763 0.24178,-0.14266 0.5539,-0.51869 0.89703,-1.08071 0.5763,-0.94393 1.32327,-1.82827 1.41665,-1.67717 0.0326,0.0527 0.0919,0.30018 0.13183,0.54996 0.0593,0.37109 0.12766,0.47492 0.37364,0.56776 0.16556,0.0625 0.30102,0.15061 0.30102,0.19582 0,0.26987 -1.36503,1.4414 -2.65913,2.28218 -0.32942,0.21402 -1.12989,0.85684 -1.77882,1.42848 -1.29897,1.14425 -1.42937,1.21598 -2.90955,1.60058 -0.89953,0.23372 -1.23985,0.26556 -2.83886,0.26556 -1.55455,0 -1.9097,0.0314 -2.46029,0.21731 -0.35391,0.11952 -0.72466,0.30701 -0.82388,0.41665 -0.14627,0.16164 -0.21744,0.17621 -0.37624,0.077 -0.16121,-0.10068 -0.24243,-0.0786 -0.45923,0.12513 -0.25111,0.23591 -0.2635,0.30468 -0.266,1.47638 -0.003,1.20655 -0.13747,2.18702 -0.53221,3.86825 -0.10915,0.46488 -0.22814,1.02352 -0.26442,1.24143 -0.0589,0.35356 -0.0996,0.39621 -0.37814,0.39621 -0.30737,0 -0.31216,0.009 -0.31216,0.57234 0,0.6895 -0.41486,1.78044 -1.4698,3.86512 -0.62716,1.23935 -0.76003,1.43325 -1.01356,1.47916 -0.3016,0.0546 -0.68617,0.60142 -0.68617,0.97565 0,0.13595 -0.0842,0.18654 -0.31038,0.18654 -0.26362,0 -0.37107,0.0949 -0.71315,0.62951 -0.28499,0.44544 -0.54771,0.70899 -0.89851,0.90134 -0.63015,0.34552 -1.30833,1.11267 -1.48235,1.67681 l -0.13492,0.4374 -0.34783,-0.35671 z"
         inkscape:connector-curvature="0" />
      <g
         id="g3562"
         transform="translate(366.68998,-196.77634)">
        <path
           style="fill:#000000;fill-opacity:1"
           d="m 425.68939,688.49464 c -0.13274,-0.49626 -0.2436,-2.73204 -0.24637,-4.96841 l -0.005,-4.06613 2.76607,-2.7476 c 2.59574,-2.57842 2.76607,-2.84623 2.76607,-4.34913 0,-1.83888 0.23002,-1.83611 -4.2413,-0.051 l -2.58167,1.03071 -1.11107,3.62095 c -0.61108,1.99152 -1.31139,3.95287 -1.55622,4.35856 -0.8295,1.37448 -0.53144,-1.97162 0.45992,-5.16333 0.50404,-1.62276 0.91646,-3.2289 0.91649,-3.5692 5e-5,-0.63024 1.95465,-1.66853 7.19183,-3.82032 1.5487,-0.63631 3.36441,-1.7646 4.53799,-2.81994 2.08055,-1.87092 4.14588,-2.67929 6.22517,-2.43655 1.35867,0.15862 1.43588,0.0496 0.67589,-0.95401 -0.56941,-0.75195 -2.75571,-1.29532 -5.31394,-1.32068 -1.68238,-0.0167 -2.90916,0.81208 -7.12531,4.81355 -1.16887,1.10936 -1.39706,1.20956 -1.39706,0.61349 0,-1.00147 4.21024,-5.273 6.09816,-6.18693 1.4269,-0.69075 1.88389,-0.72973 4.94942,-0.42225 3.45042,0.34609 4.84838,1.02668 5.35578,2.60744 0.10365,0.3229 0.9608,0.90409 1.90479,1.29153 2.21197,0.90788 4.03606,2.5238 4.99388,4.42396 1.00323,1.99027 0.90986,1.94481 1.96284,0.95558 0.7674,-0.72094 0.92091,-1.20698 0.92263,-2.92119 0.003,-2.72276 0.59065,-4.71893 1.53939,-5.22668 0.44235,-0.23674 1.79894,-0.34751 3.17936,-0.25961 2.24588,0.14301 2.48862,0.2468 3.60937,1.54332 1.00375,1.16116 1.31837,1.32749 1.91105,1.0103 0.39022,-0.20884 3.27333,-0.49408 6.40692,-0.63388 l 5.69744,-0.25417 1.77402,1.25098 c 2.79131,1.96835 6.24233,5.31791 6.05573,5.87771 -0.11622,0.34865 -0.73475,-0.0143 -1.98712,-1.16588 -2.16136,-1.9875 -6.4257,-4.38286 -7.8026,-4.38286 -0.53896,0 -2.86891,0.19151 -5.17769,0.42557 l -4.19776,0.42558 0.94817,0.94818 c 0.66096,0.66096 1.36739,0.95829 2.33211,0.98157 0.76117,0.0184 2.87513,0.23951 4.69771,0.49144 3.14869,0.43522 3.36898,0.52589 4.42188,1.81993 0.60945,0.74904 2.46829,2.80491 4.13073,4.5686 1.66245,1.7637 3.21191,3.56038 3.44323,3.99262 0.83348,1.55735 -0.86399,0.14144 -5.27014,-4.396 l -4.31913,-4.44782 -3.50559,-0.24642 c -1.92807,-0.13553 -3.50559,-0.12423 -3.50559,0.0251 0,0.14934 0.74684,1.12528 1.65965,2.16875 1.08453,1.23979 1.65964,2.24064 1.65964,2.88826 0,0.54507 0.42513,2.75519 0.94475,4.91138 0.51961,2.15619 0.89075,4.3685 0.82476,4.91624 l -0.11999,0.9959 -0.57997,-1.10643 c -0.31899,-0.60853 -0.96517,-2.76252 -1.43596,-4.78664 -0.47079,-2.02411 -1.07884,-3.90306 -1.35122,-4.17544 -0.27237,-0.27238 -0.49523,-0.72401 -0.49523,-1.00362 0,-0.54017 -2.02012,-3.70199 -2.59045,-4.05448 -0.1861,-0.11501 -0.84275,0.0517 -1.45923,0.37051 -1.07302,0.55489 -1.09859,0.62243 -0.59908,1.58251 0.28698,0.55159 0.92523,1.37967 1.41834,1.84017 0.87804,0.81996 0.89363,0.93813 0.75391,5.71654 -0.0785,2.68359 -0.22528,5.27226 -0.32626,5.7526 -0.39342,1.87139 -0.70871,0.13797 -0.88532,-4.86729 l -0.1844,-5.22627 -1.29084,-1.72902 c -1.64537,-2.20391 -2.39473,-2.32258 -2.07591,-0.32874 0.28464,1.78004 -0.003,2.61097 -0.90244,2.61097 -0.45878,0 -0.61615,-0.18356 -0.4743,-0.55321 0.2659,-0.69293 0.15229,-0.69011 -1.29567,0.0322 -0.92884,0.46336 -1.80587,0.53434 -4.20577,0.34036 -2.43174,-0.19655 -3.32434,-0.12095 -4.50744,0.38178 -1.01533,0.43144 -2.94586,0.68698 -6.19259,0.81967 l -4.71735,0.19281 -1.4602,2.5002 c -0.80311,1.37511 -1.46019,2.65298 -1.46019,2.83971 0,0.18672 -0.3246,0.63325 -0.72131,0.99228 -0.70633,0.63921 -0.71676,0.62315 -0.50196,-0.77266 0.12064,-0.78399 0.69521,-2.33824 1.27682,-3.45389 l 1.05747,-2.02845 -2.18558,-0.32401 c -2.96778,-0.43997 -3.76342,-0.16539 -6.31334,2.17883 -1.2071,1.10972 -2.36214,2.01768 -2.56674,2.01768 -0.22427,0 -0.38231,1.50139 -0.39794,3.78029 -0.028,4.083 -0.38877,5.96006 -0.8291,4.31376 z m 35.28763,-19.34273 c -0.11676,-0.30427 -0.35528,-0.55321 -0.53006,-0.55321 -0.17478,0 -0.22225,0.24894 -0.10549,0.55321 0.11676,0.30427 0.35529,0.55321 0.53006,0.55321 0.17478,0 0.22225,-0.24894 0.10549,-0.55321 z m 3.01687,-0.76781 1.39627,-0.5834 -1.07462,-0.86274 -1.07463,-0.86275 -0.81556,0.75942 c -0.63479,0.59109 -0.7341,0.91163 -0.44803,1.44615 0.44228,0.82642 0.30303,0.81929 2.01657,0.10332 z m -7.02418,-1.99392 c 0.33609,-1.01184 0.77782,-1.94277 0.98164,-2.06874 0.20382,-0.12597 0.85796,0.23792 1.45365,0.80862 l 1.08308,1.03765 0.77878,-0.77878 0.77878,-0.77877 -1.20757,-0.62446 c -0.66416,-0.34345 -1.97188,-0.64927 -2.90605,-0.6796 l -1.69848,-0.0551 -0.10905,2.48947 c -0.06,1.3692 -0.0318,2.48946 0.0626,2.48946 0.0944,0 0.44659,-0.82787 0.78266,-1.83971 z m 2.1867,0.31981 c -0.23901,-0.38673 -0.89442,-0.0763 -0.89442,0.42366 0,0.18451 0.24799,0.24031 0.5511,0.12399 0.3031,-0.11631 0.45759,-0.36275 0.34332,-0.54765 z"
           id="path3564"
           inkscape:connector-curvature="0" />
      </g>
      <g
         id="g3594"
         transform="matrix(-0.22613362,0,0,0.22613362,546.22533,198.53383)">
        <path
           style="fill:#1a1a1a;fill-opacity:1"
           d="m 122.3151,1278.5601 c -5.71357,-7.2489 -12.6591,-17.5495 -15.33989,-22.75 -2.60334,-5.0501 -3.51919,-9.2055 -6.36257,-28.8679 l -2.294664,-15.868 -5.500001,-1.7122 c -3.025,-0.9418 -8.34652,-3.1326 -11.82559,-4.8686 -5.95325,-2.9706 -6.49481,-3.0689 -9.20034,-1.6698 -1.58111,0.8176 -3.54764,1.4865 -4.37005,1.4865 -1.66101,0 -1.57315,4.1631 0.3799,18 0.832,5.8946 1.8118,8.5984 4.57725,12.6312 1.93525,2.8221 4.40069,5.9293 5.47874,6.905 2.30597,2.0868 2.52409,3.4638 0.54868,3.4638 -1.62624,0 -13.17138,-12.2732 -15.050821,-16 -0.69342,-1.375 -1.51862,-6.325 -1.83378,-11 -0.88547,-13.1351 1.15803,-11.9944 -21.56098,-12.0356 -13.613161,-0.025 -21.484841,-0.4803 -25.643011,-1.4844 -7.6984804,-1.8588 -7.7490104,-1.8544 -6.2584703,0.5506 1.04057,1.6789 0.99875,2.1957 -0.2415301,2.9846 -2.97134,1.8902 -4.0225901,1.237 -11.8312403,-7.3513 -2.8600701,-3.1456 -3.9460602,-3.6639 -7.6780503,-3.6639 l -4.346797,0 -0.551742,5.25 c -0.303458,2.8875 -0.788458,10.4379 -1.077777,16.7786 -1.069159,23.4317 -0.721063,22.2497 -9.588085,32.5571 -4.317237,5.0185 -11.129299,11.7558 -15.137916,14.9717 -9.790815,7.8546 -9.521843,7.683 -10.234351,6.5301 -0.343206,-0.5553 0.793495,-2.2647 2.526004,-3.7986 4.598563,-4.0713 17.368484,-19.488 20.281327,-24.4849 2.191603,-3.7597 2.58272,-5.8848 3.092707,-16.804 0.3211,-6.875 0.827442,-16.6625 1.125205,-21.75 l 0.541388,-9.25 -5.465837,0 c -6.529721,0 -12.468924,2.8205 -16.835866,7.9951 -1.626803,1.9277 -3.769631,4.4092 -4.761839,5.5144 -1.853479,2.0646 -4.103693,8.3611 -5.987741,16.7549 -1.429926,6.3706 -1.373739,7.0318 0.795344,9.3601 3.209606,3.4451 4.01799,5.8356 4.212032,12.4557 0.301696,10.2929 0.0779,11.9198 -1.639625,11.9198 -0.918005,0 -1.458626,-0.722 -1.310243,-1.75 0.38275,-2.6515 -1.203377,-13.5141 -2.263255,-15.5 -0.513707,-0.9625 -1.363468,-1.75 -1.888358,-1.75 -0.524889,0 -4.393764,3.6 -8.597499,8 -6.742001,7.0568 -10.40076,9.6155 -10.367123,7.25 0.0059,-0.4125 2.019062,-2.9277 4.473768,-5.5895 5.817257,-6.3079 8.515567,-10.7642 8.515567,-14.0637 0,-1.7076 -2.338279,-5.8529 -6.5,-11.5229 -3.575,-4.8707 -6.5,-9.5493 -6.5,-10.3968 0,-2.0182 3.117423,-4.1247 17,-11.4873 9.446771,-5.01 12.864707,-7.4908 19.143623,-13.8944 15.070765,-15.37 13.712947,-14.4604 19.850037,-13.2966 4.137514,0.7847 5.561139,0.7295 6.176295,-0.2395 1.305232,-2.056 1.117374,-2.2339 -5.991917,-5.6731 l -6.821966,-3.3003 -5.428035,2.7289 c -4.649093,2.3373 -15.25715,8.0663 -31.428037,16.973 -12.538575,6.9062 -15.500513,8.8679 -17.077367,11.3107 -4.132584,6.4021 -27.203753,28.2015 -29.846673,28.2015 -1.79528,0 0.005,-3.1461 4.03001,-7.0417 5.67613,-5.4941 14.015079,-15.7731 18.673184,-23.0175 2.431068,-3.7809 5.133932,-6.3968 8.859589,-8.5746 5.56575,-3.2534 32.30942,-18.3904 41.788061,-23.6522 7.794784,-4.327 13.360348,-4.51 22.346088,-0.7345 3.93002,1.6512 7.41265,2.6688 7.73917,2.2614 0.3265201,-0.4075 2.5825701,-3.4408 5.0134502,-6.7408 7.6064803,-10.3261 10.2537804,-12.5 15.2219808,-12.5 6.65679,0 10.51014,4.7532 23.30711,28.75 3.859621,7.2375 3.873501,7.2499 8.071071,7.2499 3.94828,0 4.46997,-0.3507 8.55129,-5.7499 9.18701,-12.1536 14.893261,-19.063 16.137971,-19.5407 0.71186,-0.2731 2.39472,-2.682 3.73968,-5.353 1.34497,-2.671 4.19809,-7.4438 6.34028,-10.6063 l 3.89489,-5.75 6.51072,0 c 7.05118,0 8.722271,0.8555 17.927165,9.1777 3.85888,3.4888 4.73117,3.8245 10,3.8485 15.34217,0.07 38.19124,8.9481 48.62598,18.8942 8.54153,8.1416 10.89643,12.6859 11.44004,22.0764 l 0.4475,7.7304 -3.78967,4.1947 c -3.55549,3.9355 -10.26325,8.078 -13.08032,8.078 -2.01292,0 -2.36407,1.4645 -0.97628,4.0717 0.71091,1.3356 2.73416,5.1503 4.49613,8.4771 3.35237,6.3298 14.37031,18.4576 27.0466,29.7712 12.05209,10.7565 7.02815,9.6393 -8.43764,-1.8762 -9.92539,-7.3903 -23.96004,-20.7949 -25.82353,-24.6642 -2.75592,-5.7224 -8.34991,-13.7728 -9.06997,-13.0527 -0.38147,0.3815 -7.01952,0.9365 -14.75122,1.2334 l -14.05764,0.5397 3.94645,4.5 c 2.17055,2.475 4.47937,5.5078 5.13072,6.7395 1.29008,2.4395 13.67393,11.1033 18.84203,13.1819 1.76927,0.7116 3.73687,1.9204 4.37245,2.6862 2.09157,2.5202 -2.90405,1.6147 -9.46559,-1.7158 -15.03773,-7.6327 -15.86791,-8.2913 -25.21068,-20.0008 -3.08458,-3.8659 -5.85064,-6.7867 -6.14679,-6.4905 -0.29615,0.2961 -0.0307,3.1397 0.58985,6.319 0.62057,3.1793 1.38664,8.2555 1.70237,11.2805 1.73595,16.6318 3.42897,23.5272 7.92203,32.2651 2.47886,4.8207 6.08483,11.0587 8.01327,13.8622 3.86687,5.6214 4.23481,6.8727 2.02087,6.8727 -0.81696,0 -3.52483,-2.5875 -6.0175,-5.75 z m -7.43294,-16.8045 c -1.03305,-2.17 -2.64638,-5.633 -3.58517,-7.6955 -0.93879,-2.0625 -2.11064,-3.75 -2.60411,-3.75 -0.49347,0 0.93624,3.6466 3.17713,8.1035 4.0483,8.0517 6.60438,10.8876 3.01215,3.342 z m -8.04448,-38.9455 c -2.03735,-12.0473 -4.19563,-20.5 -5.23441,-20.5 -0.5496,0 -0.69564,0.7875 -0.32455,1.75 1.29233,3.3519 4.19588,17.6633 5.22425,25.75 0.55498,4.3642 0.866,5.1821 1.14075,3 0.20776,-1.65 -0.15496,-6.15 -0.80604,-10 z m -169.582678,3.2709 c 0.382446,-1.799 0.904723,-4.813 1.160616,-6.6977 0.255894,-1.8848 1.32713,-5.3753 2.380526,-7.7567 l 1.915266,-4.3298 -2.19672,1.1567 c -2.241784,1.1804 -12.859489,7.792 -13.611664,8.4759 -0.626102,0.5693 8.319702,13.2472 9.035782,12.8054 0.341461,-0.2107 0.933748,-1.8549 1.316194,-3.6538 z m 40.148775,-10.8772 c 0.296863,-6.8165 0.958992,-13.9687 1.471396,-15.8937 1.165391,-4.3781 1.185293,-6 0.07363,-6 -1.236642,0 -3.130828,16.0234 -3.130828,26.4844 0,4.867 0.235362,8.6136 0.523026,8.326 0.287665,-0.2877 0.765915,-6.1002 1.062779,-12.9167 z m -5.88366,-23.2478 c 5.687771,-0.1451 5.720718,-0.1637 6.457133,-3.6459 0.568765,-2.6894 0.360171,-3.7894 -0.900672,-4.75 -2.742681,-2.0893 -4.483724,-1.453 -9.474258,3.4625 -4.874174,4.8008 -5.968006,6.679 -3.291746,5.652 0.820932,-0.315 4.065226,-0.6384 7.209543,-0.7186 z m 34.7978556,-5.7034 c -5.2378902,-3.5694 -12.5405604,-7.0354 -13.5321204,-6.4226 -0.5264201,0.3253 -1.4037101,1.426 -1.9495301,2.4459 -1.6775901,3.1346 4.0307001,5.9983 11.9816504,6.0108 l 6.5000002,0.01 -3.0000001,-2.0444 z m 20.2906404,-2.4445 c 0.60625,-0.5129 -14.50295,-26.0143 -16.29346,-27.5003 -0.9415703,-0.7814 -2.7688004,1.1781 -7.3895105,7.9245 l -6.1386402,8.9627 6.7654902,3.7399 c 3.7210101,2.0569 8.3404805,4.7914 10.2654805,6.0766 2.89757,1.9344 4.27455,2.2252 8,1.6895 2.475,-0.3559 4.63079,-0.7577 4.79064,-0.8929 z"
           id="path3600"
           inkscape:connector-curvature="0" />
        <path
           style="fill:#1a1a1a;fill-opacity:1"
           d="m 124.64055,1280.5601 c -4.31553,-4.5162 -16.403,-22.31 -18.39657,-27.0813 -1.42234,-3.4041 -3.00701,-11.7743 -3.90005,-20.6 -0.2587,-2.5567 -0.89698,-6.3181 -1.41839,-8.3586 -0.52141,-2.0405 -1.245044,-6.0282 -1.608084,-8.8616 -0.64936,-5.0679 -0.72923,-5.1689 -4.926781,-6.2258 -2.34669,-0.5909 -7.72928,-2.8146 -11.96131,-4.9415 l -7.69459,-3.867 -4.7084,2.3943 c -2.58962,1.3169 -4.60844,2.9337 -4.48626,3.593 0.12218,0.6592 0.64542,5.6985 1.16276,11.1985 0.51734,5.5 1.54237,11.1314 2.27786,12.5141 1.96037,3.6856 5.80054,9.0957 8.68522,12.2359 1.38941,1.5125 2.09151,2.75 1.56022,2.75 -1.31725,0 -12.85344,-11.8968 -14.54523,-15 -0.749631,-1.375 -2.037971,-7.3552 -2.862971,-13.2893 l -1.5,-10.7894 -21.5,-0.3262 c -16.552371,-0.2512 -22.631021,-0.7027 -26.414881,-1.9624 -5.5133204,-1.8355 -6.6005104,-1.4882 -4.7279804,1.5102 1.8463301,2.9565 0.8859501,3.2191 -2.45448,0.6712 l -2.9026601,-2.214 1.91054,2.2061 c 1.0507901,1.2134 1.6138001,2.5028 1.2511201,2.8655 -0.36267,0.3627 -3.3241601,-2.1151 -6.5810802,-5.5061 -5.5231502,-5.7506 -6.2223902,-6.1656 -10.3898404,-6.1656 -4.258944,0 -4.494497,0.1522 -5.030678,3.25 -0.309386,1.7875 -0.805426,7.3 -1.102312,12.25 -0.296886,4.95 -0.802254,13.2495 -1.12304,18.4433 -0.331908,5.3739 -1.238006,10.7095 -2.102661,12.3815 -1.886683,3.6485 -20.276429,22.2361 -26.232088,26.5144 -7.452587,5.3537 -6.92076,3.5351 1.488327,-5.0892 7.641206,-7.8367 14.928032,-16.8496 17.202149,-21.2769 0.942743,-1.8353 3.209563,-32.398 3.209563,-43.2733 l 0,-4.4474 -5.265728,0.4367 c -6.294603,0.522 -14.16176,4.2273 -17.104908,8.0561 -1.171151,1.5236 -3.521551,4.5252 -5.223111,6.6701 -2.112678,2.6632 -3.477073,5.9112 -4.302547,10.2423 -0.664842,3.4884 -1.581928,7.7688 -2.03797,9.512 -0.705649,2.6974 -0.351718,3.8411 2.375923,7.6776 3.027636,4.2584 3.201026,4.9826 3.131714,13.0802 -0.07868,9.1926 -1.671429,11.3368 -2.282383,3.0726 -0.434027,-5.8708 -2.123662,-11.7019 -3.685904,-12.7204 -0.647936,-0.4223 -4.711828,2.8656 -9.823773,7.948 -4.795277,4.7676 -8.985104,8.402 -9.310725,8.0764 -0.325622,-0.3257 1.274778,-2.5522 3.556445,-4.948 2.281667,-2.3958 4.881016,-5.5935 5.776332,-7.106 0.895317,-1.5125 2.093325,-2.7502 2.662241,-2.7505 0.568915,-3e-4 1.022826,-1.774 1.008691,-3.9416 -0.02027,-3.1091 -1.133004,-5.5271 -5.270632,-11.4532 -2.884712,-4.1317 -5.685647,-7.7845 -6.224299,-8.1174 -0.538653,-0.3329 -0.979368,-1.6981 -0.979368,-3.0337 0,-2.7585 2.448156,-4.5134 17.56207,-12.589 7.946534,-4.2459 11.461651,-6.9969 20.941212,-16.389 l 11.391736,-11.2865 4.215337,0.9471 c 2.318435,0.5209 4.531915,1.1428 4.918845,1.3819 0.777445,0.4805 4.537802,-3.3047 3.881338,-3.907 -0.225795,-0.2071 -3.603279,-1.9749 -7.50552,-3.9283 l -7.094985,-3.5518 -15.405016,8.2467 c -8.472759,4.5357 -17.430017,9.3867 -19.905017,10.78 -2.475,1.3933 -7.085896,3.9949 -10.246436,5.7813 -3.937502,2.2255 -8.187201,6.0777 -13.500001,12.2373 -9.488164,11.0005 -25.253563,24.3167 -25.253563,21.3304 0,-0.2714 2.7761,-3.3089 6.16911,-6.75 6.66321,-6.7578 16.349161,-18.7716 18.934764,-23.4855 0.882132,-1.6082 3.582133,-4.1663 6.000001,-5.6847 6.939239,-4.3578 35.636112,-20.4227 43.896126,-24.5737 9.101425,-4.5738 12.904455,-4.6119 22.053343,-0.2208 3.526078,1.6923 6.452108,2.994 6.502268,2.8925 0.6603101,-1.3353 10.52236039,-13.9985 12.7991005,-16.4344 2.66328,-2.8495 3.6697601,-3.25 8.1671405,-3.25 4.03845,0 5.57058,0.4785 7.20309,2.25 2.28272,2.4769 10.65996,16.4495 15.64202,26.0896 l 3.183711,6.1603 4.97467,0.2927 4.97466,0.2927 5.88572,-8.0952 c 3.23714,-4.4524 8.33411,-10.6591 11.3266,-13.7927 2.992491,-3.1336 6.814471,-8.3974 8.493291,-11.6974 1.67882,-3.3 4.38216,-7.6875 6.00742,-9.75 2.81014,-3.5662 3.2407,-3.75 8.78144,-3.75 5.67122,0 6.03524,0.1696 13.665975,6.368 7.68893,6.2458 7.98367,6.3814 15.33956,7.0579 4.125,0.3793 9.29825,1.1609 11.4961,1.7367 2.19786,0.5758 4.67286,1.1844 5.5,1.3523 15.38029,3.1224 33.63514,15.7401 39.0199,26.9706 3.08348,6.4309 3.77827,15.0778 1.55672,19.3738 -1.53854,2.9752 -8.79278,9.1406 -10.75488,9.1406 -0.48514,0 -2.44412,0.6527 -4.35328,1.4504 l -3.4712,1.4504 3.02037,5.1225 c 1.6612,2.8174 3.63091,6.5523 4.37712,8.2997 2.14495,5.0227 13.49246,17.4537 23.89557,26.177 10.22965,8.578 11.19572,11.0846 1.90518,4.9434 -14.07177,-9.3017 -30.78077,-24.7735 -34.49763,-31.9434 -1.42561,-2.75 -3.46298,-6.2817 -4.52748,-7.8483 l -1.93547,-2.8483 -15.32916,0.1453 c -8.43104,0.08 -15.53976,0.3559 -15.79716,0.6133 -0.25739,0.2574 0.87551,1.9238 2.51756,3.703 1.64206,1.7793 4.68604,5.3812 6.76439,8.0043 3.27412,4.1323 15.99748,13.689 18.31013,13.753 0.44177,0.012 1.92822,0.9404 3.30322,2.0627 l 2.5,2.0404 -2.5,-0.6938 c -3.30968,-0.9185 -15.47437,-6.9956 -20.5,-10.2412 -2.2,-1.4208 -7.09757,-6.5449 -10.8835,-11.3868 -6.27546,-8.0259 -9.26343,-10.8084 -8.11125,-7.5536 0.46988,1.3275 1.83739,11.4478 3.54703,26.25 0.57172,4.95 1.52913,10.575 2.12757,12.5 1.89866,6.1074 7.54598,17.3263 12.26104,24.3577 2.50751,3.7394 4.55911,6.9886 4.55911,7.2206 0,1.2787 -2.00987,-0.013 -5.17743,-3.3283 z m -11.25154,-22.6678 c -1.97892,-4.1702 -4.04196,-7.5822 -4.58453,-7.5822 -0.54258,0 -0.9865,0.2379 -0.9865,0.5286 0,0.8255 6.11278,12.8211 7.25941,14.2456 2.39207,2.9719 1.66491,-0.1256 -1.68838,-7.192 z m -141.226969,-9.9298 c 2.114239,-2.5234 3.672932,-5.1014 3.463763,-5.7289 -0.330248,-0.9907 -3.645756,3.2613 -9.416723,12.0765 -1.629151,2.4886 -1.62807,2.4903 0.236125,0.3702 1.030021,-1.1715 3.602596,-4.1945 5.716835,-6.7178 z m -27.681789,-3.9024 c -0.277413,-0.6875 -0.504386,-0.125 -0.504386,1.25 0,1.375 0.226973,1.9375 0.504386,1.25 0.277412,-0.6875 0.277412,-1.8125 0,-2.5 z m 226.047178,-6.4494 c -2.48758,-2.6403 -5.42611,-5.9256 -6.53008,-7.3006 -1.10396,-1.375 -2.27103,-2.2374 -2.59348,-1.9164 -0.32244,0.3209 2.43533,3.7869 6.1284,7.7022 3.69306,3.9152 6.89541,6.9379 7.11634,6.717 0.22092,-0.221 -1.63361,-2.562 -4.12118,-5.2022 z m -61.70945,-0.8579 c 0,-2.982 -1.66489,-14.9537 -2.982,-21.4427 -0.50237,-2.475 -1.20148,-6.4125 -1.55359,-8.75 -0.50099,-3.3258 -1.06366,-4.25 -2.58749,-4.25 -1.66404,0 -1.784934,0.3034 -0.83112,2.0856 1.22419,2.2874 4.64799,20.0584 5.6189,29.1644 0.6096,5.7175 2.3353,8.0767 2.3353,3.1927 z m -179.524861,-12.136 c -3.159722,-4.2937 -5.571744,-7.2607 -5.360049,-6.5934 0.553617,1.7452 10.31521,15.1293 10.744949,14.7325 0.198026,-0.1829 -2.225179,-3.8455 -5.3849,-8.1391 z m 9.315186,1.4433 c 1.106772,-2.3375 1.606717,-4.4 1.110989,-4.5833 -0.495728,-0.1833 -0.901324,-0.7724 -0.901324,-1.309 0,-0.5366 0.468037,-0.6864 1.040082,-0.3329 0.676547,0.4181 0.823039,-0.3477 0.419116,-2.191 -0.475387,-2.1694 -0.371154,-2.4821 0.444606,-1.3338 0.904164,1.2728 1.09189,1.1971 1.239327,-0.5 0.09557,-1.1 0.09714,-2.8474 0.0035,-3.8832 -0.09365,-1.0358 0.340152,-2.4983 0.964002,-3.25 2.133253,-2.5705 -1.048567,-1.4929 -8.283088,2.805 -3.862171,2.2945 -7.244628,4.7516 -7.516572,5.4603 -0.50322,1.3113 7.364044,13.3679 8.722929,13.3679 0.409267,0 1.649661,-1.9125 2.756433,-4.25 z m 38.768726,-4.9924 c 0.178214,-3.4873 0.800331,-10.9821 1.382483,-16.6551 1.340916,-13.0668 1.350618,-12.8232 -0.439301,-11.0333 -1.155646,1.1557 -1.644233,5.3732 -2.139017,18.4643 -0.352691,9.3316 -0.300817,16.6512 0.115277,16.2657 0.416094,-0.3855 0.902345,-3.5542 1.080558,-7.0416 z M 152.0573,1210.5601 c -2.18767,-4.7466 -13.60872,-23.6795 -16.93034,-28.0656 -1.38103,-1.8237 -2.76728,-3.0594 -3.08058,-2.7461 -0.31329,0.3133 0.33725,1.5804 1.44565,2.8157 1.1084,1.2353 3.77267,5.1696 5.92061,8.7428 2.14794,3.5732 4.35534,7.2366 4.90534,8.141 0.55,0.9043 2.72623,4.6183 4.83607,8.2532 4.25438,7.3297 5.55323,8.6088 2.90325,2.859 z m -242.674354,-8.2762 c 5.115048,-6.8877 5.756503,-7.9738 4.709649,-7.9738 -0.463876,0 -1.694043,1.4625 -2.733706,3.25 -1.039662,1.7875 -2.151746,3.475 -2.471297,3.75 -1.36507,1.1748 -6.066893,7.9367 -6.03782,8.6833 0.03578,0.9187 0.761703,0.062 6.533174,-7.7095 z m 33.154609,2.932 c 5.954997,-3.2989 6.337683,-4.3264 0.530416,-1.4242 -2.887501,1.443 -5.250001,2.825 -5.250001,3.0711 0,0.7909 0.8618,0.4902 4.719585,-1.6469 z m 31.162871,-25.6557 c 0.247984,-0.1375 -0.313578,-0.25 -1.247916,-0.25 -1.856196,0 -14.523446,12.3676 -21.554777,21.045 -2.766283,3.4138 0.588513,0.5906 8.965788,-7.5451 7.362313,-7.15 13.588921,-13.1124 13.836905,-13.2499 z m 71.367548,25.0266 c -1.7875,-0.2219 -4.7125,-0.2219 -6.5,0 -1.7875,0.2218 -0.325,0.4033 3.25,0.4033 3.575,0 5.0375,-0.1815 3.25,-0.4033 z m 119.958776,-1.4253 c 1.65963,-1.1818 3.6416,-3.6423 4.40437,-5.4679 2.06258,-4.9364 1.6364,-6.5295 -0.4928,-1.8421 -1.00966,2.2228 -3.2843,5.2603 -5.05477,6.75 -3.84175,3.2326 -3.11211,3.59 1.1432,0.56 z m -135.958777,0.4864 c -0.6875,-0.2774 -1.8125,-0.2774 -2.5,0 -0.6875,0.2774 -0.125,0.5044 1.25,0.5044 1.375,0 1.9375,-0.227 1.25,-0.5044 z m -8.98097,-0.9937 c -0.67703,-0.2739 -2.02703,-0.2906 -3,-0.037 -0.97297,0.2535 -0.41903,0.4776 1.23097,0.498 1.65,0.02 2.44606,-0.1871 1.76903,-0.461 z m -8.84046,-5.9155 c 2.00287,-2.0028 2.00803,-3.4286 0.01241,-3.4286 -0.85746,0 -1.2803803,0.4509 -0.93982,1.0019 0.34055,0.5511 -0.5328903,1.4399 -1.9409903,1.9753 -1.4080901,0.5353 -2.5601701,1.2095 -2.5601701,1.4981 0,1.1798 3.9669001,0.415 5.4285704,-1.0467 z m 13.37143,0.3714 c 1.7276,-1.7275 1.48174,-3.2787 -0.28701,-1.8107 -0.89627,0.7438 -2.55473,0.9661 -4.17464,0.5595 -2.35565,-0.5912 -2.5274,-0.4815 -1.39054,0.8884 1.54567,1.8624 4.18876,2.0263 5.85219,0.3628 z m -62.800002,-2.0294 c 0,-0.5853 -0.635407,-0.4881 -1.5,0.2294 -0.825,0.6847 -1.5,1.4007 -1.5,1.5911 0,0.1904 0.675,0.087 1.5,-0.2294 0.825,-0.3166 1.5,-1.0326 1.5,-1.5911 z m 75.065743,1.1943 c 3.21667,-1.7215 2.19389,-2.4999 -2.76645,-2.1054 -4.282971,0.3406 -4.532581,0.4968 -2.808871,1.7572 2.26511,1.6563 3.040591,1.7047 5.575321,0.3482 z m -45.3157419,-0.6811 c -1.5125,-0.2291 -3.9875001,-0.2291 -5.5000001,0 -1.5125,0.2291 -0.275,0.4166 2.75,0.4166 3.0250001,0 4.2625002,-0.1875 2.7500001,-0.4166 z m 10.2500004,0.2697 c 0,-0.9518 -11.1183504,-7.7684 -11.7084004,-7.1784 -0.3437101,0.3437 -0.07338,0.6249 0.60075,0.6249 0.67413,0 0.93406,0.4719 0.57764,1.0486 -0.44549,0.7208 -1.07538,0.6939 -2.0152101,-0.086 -1.47205,-1.2217 -3.45478,-0.5177 -3.45478,1.2266 0,0.67 1.60545,0.8901 4.2874901,0.5878 3.3831701,-0.3813 5.0118701,0.013 7.7217902,1.8699 3.5748401,2.4496 3.9907202,2.6483 3.9907202,1.9067 z m 48.8447915,-0.5264 c 1.29022,-0.7532 0.87241,-0.9729 -1.89479,-0.9966 -1.9525,-0.017 -4.0825,-0.563 -4.73333,-1.2138 -1.5471,-1.5471 -2.826,-0.2558 -1.42206,1.4359 1.34828,1.6245 5.85176,2.0578 8.05018,0.7745 z m 9.57342,-0.634 c 0.86999,-0.3339 1.58179,-1.064 1.58179,-1.6225 0,-0.5869 -0.63078,-0.4919 -1.49467,0.225 -0.82207,0.6823 -2.3977,1.0044 -3.50138,0.7157 -1.10369,-0.2886 -1.75453,-0.1167 -1.44631,0.382 0.64828,1.049 2.5953,1.169 4.86057,0.2998 z m -87.291355,-2.5388 4.704073,0.1059 0.693338,-4.1038 c 0.502882,-2.9765 0.320083,-4.3403 -0.665465,-4.9648 -2.945088,-1.866 -5.593359,-0.7212 -10.892964,4.7088 l -5.46584,5.6003 3.461392,-0.7262 c 1.903766,-0.3994 5.578225,-0.6785 8.165466,-0.6202 z m 43.826804,-2.3287 c -2.99951,-1.9109 -5.97866,-3.4859 -6.62033,-3.5 -0.6416603,-0.014 -1.3233303,-0.4955 -1.5148103,-1.07 -0.19148,-0.5744 -1.3228001,-1.1178 -2.5140501,-1.2076 -1.19125,-0.09 -1.9862001,-0.4539 -1.7665501,-0.8093 0.6154901,-0.9959 -4.54625011,-3.0515 -5.7673602,-2.2968 -0.62463,0.386 -0.79195,0.2018 -0.39706,-0.4372 0.37573,-0.6079 -0.31288,-1.637 -1.53199,-2.2895 -1.9458601,-1.0414 -2.4945101,-0.8352 -4.5227102,1.6999 -2.7900001,3.4871 -2.6150201,4.241 1.6561801,7.1349 3.6156701,2.4498 12.7009304,3.1741 14.7028805,1.1722 0.77048,-0.7705 2.4672803,-0.2056 5.9500003,1.981 2.67968,1.6824 5.52629,3.0674 6.3258,3.0778 0.79952,0.011 -1.00048,-1.5444 -4,-3.4554 z m 11.26189,-9.8572 c -6.07187,-11.5603 -13.21555,-22.986 -13.21555,-21.1371 0,0.5524 1.05882,2.5714 2.35293,4.4866 3.95822,5.8579 10.73047,18.2321 10.24426,18.7183 -0.25224,0.2522 -0.9538,-0.3727 -1.55902,-1.3888 -0.60523,-1.016 -4.18601,-7.0223 -7.95729,-13.3473 -3.77129,-6.325 -7.46979,-11.6076 -8.2188903,-11.739 -1.27819,-0.2243 -12.8619904,15.6394 -12.8619904,17.6141 0,0.501 0.7875,1.213 1.75,1.5822 0.96250008,0.3692 5.4406302,2.8923 9.9514004,5.6069 6.8259803,4.108 9.0145303,4.9357 13.0500003,4.9357 2.66673,0 5.3886,-0.54 6.0486,-1.2 0.86665,-0.8666 1.2,-0.8825 1.2,-0.057 0,1.5903 4.13799,8.4525 4.7362,7.8543 0.268551,-0.2686 -2.21575,-5.6365 -5.52065,-11.9288 z m 28.787601,2.5816 c 3.90157,-5.3624 8.689081,-11.8874 10.638911,-14.4999 5.45358,-7.3071 3.21131,-5.6286 -3.339651,2.5 -8.79002,10.9067 -16.44701,21.7499 -15.35886,21.7499 0.53121,0 4.15803,-4.3875 8.0596,-9.75 z m 3.49685,6.75 c -0.33992,-0.55 -0.19103,-1 0.33086,-1 0.52189,0 1.88549,-1.9125 3.03023,-4.25 1.144741,-2.3375 4.123611,-8.0331 6.619701,-12.657 2.4961,-4.6239 4.35814,-8.5874 4.13788,-8.8076 -0.63949,-0.6395 -4.07568,4.6433 -7.94499,12.2147 -1.96754,3.85 -4.749521,8.9124 -6.182191,11.2499 -2.14817,3.5049 -2.32159,4.25 -0.98915,4.25 0.88863,0 1.33758,-0.45 0.99766,-1 z m -129.230132,-3.6932 c 2.32657,-1.4813 12.105129,-6.8775 21.730129,-11.9917 9.625,-5.1141 16.787593,-9.3022 15.916874,-9.3067 -1.623888,-0.01 -14.484041,6.4683 -21.147002,10.6504 -2.051571,1.2877 -3.985687,2.3413 -4.298037,2.3413 -0.312349,0 -3.030031,1.575 -6.03929,3.4999 -3.009259,1.925 -5.800143,3.5101 -6.201963,3.5223 -1.019614,0.031 -5.907125,3.9282 -4.960711,3.9555 0.423429,0.012 2.673429,-1.1897 5,-2.671 z m 163.652833,-3.2306 c -1.13493,-2.349 -3.77407,-7.0657 -5.86475,-10.4815 -2.09068,-3.4157 -4.09664,-7.0844 -4.45769,-8.1526 -0.8516,-2.5194 -4.49552,-6.8801 -5.17848,-6.1972 -0.29052,0.2906 1.44714,3.6168 3.86146,7.3917 2.41432,3.7749 6.34753,10.3417 8.74047,14.5929 4.653061,8.2664 6.297841,9.8815 2.89899,2.8467 z m 72.568055,-1.4544 c -3.04777,-6.4227 -12.3694,-15.1532 -20.24075,-18.9572 -3.9875,-1.927 -7.25,-3.3033 -7.25,-3.0584 0,0.2449 -1.32765,-0.2413 -2.95034,-1.0805 -1.62269,-0.8391 -3.53519,-1.5162 -4.25,-1.5047 -0.71481,0.011 2.27759,1.8636 6.64979,4.1158 12.88478,6.6371 21.30022,13.3209 26.52814,21.0693 3.02975,4.4905 3.78323,4.1995 1.51316,-0.5843 z m -181.149828,-1.6217 c 0.97468,-1.65 1.55234,-3 1.2837,-3 -0.26864,0 -1.44973,1.35 -2.62463,3 -1.174904,1.6499 -1.752569,2.9999 -1.283702,2.9999 0.468868,0 1.649952,-1.35 2.624632,-2.9999 z m 9.8489803,-13.75 c 4.02055009,-5.3625 8.3225902,-10.8705 9.5600903,-12.2398 3.2832501,-3.6332 2.7535601,-4.8669 -0.67802,-1.5792 -2.9295201,2.8066 -17.6333206,23.569 -16.6914706,23.569 0.27462,0 3.7888601,-4.3875 7.8094003,-9.75 z m -9.1899103,7.2039 c 0,-0.7942 -10.231002,-5.4332 -12,-5.4411 -0.825,0 1.2,1.3075 4.5,2.9136 6.208779,3.0218 7.5,3.457 7.5,2.5275 z m 104.750003,-22.1034 c 2.3375,-0.3423 4.250001,-0.8773 4.250001,-1.1889 0,-1.0681 -6.391641,-7.1616 -7.512031,-7.1616 -1.21748,0 -5.48797,7.0055 -5.48797,9.0027 0,0.7961 0.79428,1.0081 2.25,0.6003 1.2375,-0.3466 4.1625,-0.9102 6.5,-1.2525 z"
           id="path3598"
           inkscape:connector-curvature="0" />
        <path
           style="fill-opacity:1"
           d="m 122.56979,1277.5601 c -12.15302,-15.381 -18.72089,-27.9152 -18.77001,-35.821 -0.01,-1.6109 -0.93561,-8.329 -2.0569,-14.929 -1.12129,-6.6 -2.125604,-12.9 -2.231804,-14 -0.14685,-1.5209 -1.89573,-2.5988 -7.301591,-4.5 -3.90967,-1.375 -9.46167,-3.787 -12.33779,-5.3601 -4.9974,-2.7334 -5.36953,-2.7917 -8.39151,-1.3138 -1.73922,0.8506 -3.93103,1.7789 -4.8707,2.0629 -1.42451,0.4306 -1.61974,1.3969 -1.17453,5.8137 2.03752,20.2138 2.30299,21.036 9.71422,30.0874 6.01147,7.3418 3.7022,6.6438 -3.306,-0.9993 -7.926321,-8.6444 -8.729051,-10.2798 -9.490441,-19.3347 -1.24127,-14.7621 -0.97656,-14.1915 -6.34609,-13.682 -2.57877,0.2447 -3.78867,0.245 -2.68867,7e-4 1.1,-0.2442 2.4275,-0.856 2.95,-1.3594 0.57678,-0.5558 -3.67774,-0.9154 -10.82956,-0.9154 -6.47876,0 -16.070091,-0.506 -21.314061,-1.1244 -7.8667,-0.9278 -9.6816,-0.8865 -10.37545,0.2362 -0.67138,1.0863 -1.45406,1.1293 -3.8816203,0.213 -3.6250201,-1.3683 -5.0011001,-0.034 -2.6472701,2.567 3.0664804,3.3884 1.5701101,3.4736 -1.90204,0.1082 -1.9250001,-1.8657 -3.5000001,-2.8715 -3.5000001,-2.2351 0,0.6365 0.98485,2.0748 2.18856,3.1962 1.2037101,1.1214 1.6883301,2.0389 1.0769201,2.0389 -1.4482001,0 -6.1210002,-4.7003 -9.2734303,-9.328 -2.3176001,-3.4022 -2.8478901,-3.6588 -7.5753803,-3.6651 -3.346857,0 -5.119965,0.4202 -5.190561,1.2431 -0.201665,2.351 -1.082276,15.2422 -1.656539,24.25 -1.456173,22.8414 -0.834693,20.8463 -9.706083,31.1587 -6.603606,7.6763 -14.205825,14.5897 -22.848468,20.7781 -0.81674,0.5848 2.056862,-2.8367 6.385781,-7.6033 4.328919,-4.7665 8.393395,-8.4659 9.032168,-8.2208 1.114635,0.4277 11.022871,-11.031 12.207293,-14.1176 0.584792,-1.5239 -2.074441,-2.2088 -2.893033,-0.7451 -0.230691,0.4125 -0.285537,0.1959 -0.12188,-0.4813 0.163658,-0.6772 0.376281,-6.9772 0.472498,-14 0.253504,-18.5031 1.594463,-26.4786 1.768541,-10.5187 0.08083,7.411 0.52864,12.25 1.133613,12.25 0.55,0 1.051052,-1.4625 1.113448,-3.25 0.619196,-17.7384 0.998687,-22.9231 1.982144,-27.0808 0.785417,-3.3205 0.820022,-5.1535 0.110679,-5.8629 -1.645917,-1.6459 -3.20368,0.04 -3.23668,3.5028 -0.02527,2.6518 -0.202628,2.8953 -1.04969,1.4409 -1.570755,-2.6968 -9.830281,-2.3358 -15.80279,0.6907 -5.248795,2.6598 -14.078799,12.1766 -15.828201,17.0593 -0.911687,2.5447 -2.035986,7.519 -3.821777,16.909 -0.199677,1.05 0.937267,3.75 2.526544,6 2.33925,3.3119 2.964161,5.385 3.28112,10.8851 0.215341,3.7368 0.01661,7.0258 -0.441635,7.3091 -0.924024,0.571 -1.309364,-3.8211 -0.91395,-10.4174 0.188885,-3.151 -0.102401,-4.2544 -1.080298,-4.0923 -0.736403,0.1221 -2.124658,-0.1215 -3.085009,-0.5412 -1.351686,-0.5908 -3.357898,0.9627 -8.881794,6.8776 -7.713263,8.2593 -14.018563,12.98 -7.99837,5.9883 1.855559,-2.155 4.361698,-4.8182 5.569199,-5.9182 1.2075,-1.1 2.487693,-2.7875 2.844872,-3.75 0.357179,-0.9625 1.011494,-1.75 1.454034,-1.75 1.615509,0 1.171323,-8.436 -0.551262,-10.4696 -1.601436,-1.8906 -1.597029,-1.9234 0.08358,-0.6206 2.840481,2.2018 3.293801,0.3389 0.646444,-2.6565 -2.267708,-2.5659 -2.276255,-2.617 -0.135316,-0.8092 2.257823,1.9066 2.30779,1.9065 4.15666,-0.01 2.254927,-2.3339 6.490768,-16.788 5.060345,-17.2676 -0.638367,-0.214 -0.620045,-1.015 0.05194,-2.2706 0.57104,-1.067 0.821552,-2.2907 0.556694,-2.7192 -0.264859,-0.4286 0.390936,-1.3241 1.457323,-1.99 1.066386,-0.666 1.883989,-0.8686 1.816895,-0.4502 -0.437204,2.7263 0.883589,1.9442 7.049534,-4.1745 l 6.934681,-6.8815 8.083936,0.033 c 7.98328,0.032 9.13735,-0.4061 9.780158,-3.716 0.923621,-4.7558 0.667075,-5.5383 -2.30489,-7.0299 -1.68929,-0.8478 -2.88929,-2.0879 -2.666667,-2.7558 1.089221,-3.2676 -3.154168,-0.3116 -12.244007,8.5293 l -10.017895,9.7437 10.023221,-10.2607 10.02322,-10.2608 5.36614,1.0177 c 4.682057,0.8879 5.535541,0.7945 6.694976,-0.7329 2.001817,-2.6371 1.78187,-3.0095 -3.357556,-5.6848 -2.6125,-1.36 -4.360898,-2.4936 -3.885328,-2.5192 0.475569,-0.026 3.041671,1.1383 5.702448,2.5865 l 4.83778,2.633 -1.952452,3.8272 c -2.224964,4.3612 -2.333705,4.9067 -0.978128,4.9067 0.535876,0 1.650385,-1.3073 2.47669,-2.9052 0.8263,-1.5979 2.08322,-3.5104 2.79316,-4.25 0.70994,-0.7396 3.0319001,-3.8197 5.1599102,-6.8447 2.1280101,-3.025 6.28265021,-8.4751 9.2325203,-12.1114 5.7625602,-7.1033 6.1514602,-7.8886 3.9065001,-7.8886 -1.51047,0 -9.6118003,9.6005 -15.8336805,18.7639 -1.9658001,2.8951 -3.8386001,4.836 -4.1617801,4.3131 -0.79464,-1.2857 -11.032913,-6.077 -12.985715,-6.077 -0.859059,0 -1.561926,0.4358 -1.561926,0.9686 0,0.5327 -0.626358,0.7282 -1.391906,0.4345 -1.52414,-0.5849 -11.642154,4.2863 -26.986291,12.9922 -5.43301,3.0826 -10.031704,5.6046 -10.219322,5.6046 -0.187618,0 -4.096744,2.2183 -8.686947,4.9296 -5.370908,3.1723 -9.308163,6.3181 -11.045572,8.8252 -3.585868,5.1744 -21.401293,22.2429 -25.736563,24.6576 -3.3405,1.8606 -3.31164,1.792 1.0666,-2.534 2.475,-2.4455 6.25292,-6.456 8.39537,-8.9123 2.142453,-2.4563 3.578395,-3.9036 3.190982,-3.2161 -1.433802,2.5445 1.115868,1.1347 4.521327,-2.5 5.049559,-5.3893 8.892321,-10.8703 8.892321,-12.6832 0,-2.0513 -0.953737,-1.9851 -2.642211,0.1832 -1.238457,1.5905 -1.308785,1.5948 -0.771374,0.047 0.669664,-1.9284 5.67156,-5.2455 19.413585,-12.8745 5.225,-2.9007 12.650001,-7.0677 16.500001,-9.2602 21.481685,-12.2328 24.455069,-12.8491 35.498764,-7.3577 l 6.498767,3.2315 4.4194402,-6.0182 c 8.0068402,-10.9033 12.0296304,-14.5181 16.1563805,-14.5181 2.1832003,0 4.7167703,0.8336 6.2868303,2.0686 2.66155,2.0936 10.75761,15.0265 16.85909,26.9314 l 3.331401,6.4999 4.97467,0.2343 4.97466,0.2342 4,-5.641 c 2.2,-3.1026 4.45,-6.1336 5,-6.7356 0.55,-0.602 2.78815,-3.3439 4.97367,-6.0932 2.18552,-2.7493 5.138621,-6.1236 6.562451,-7.4986 1.42383,-1.375 3.91068,-5.1335 5.52633,-8.3521 1.61565,-3.2186 4.43512,-7.6061 6.26547,-9.75 3.05012,-3.5726 3.74766,-3.8979 8.3561,-3.8979 5.25511,0 8.418411,1.7926 16.609325,9.4125 2.89743,2.6955 4.58045,3.2587 14,4.6847 21.93912,3.3215 35.03771,8.8318 45.59064,19.179 8.19643,8.0366 10.56469,12.9481 10.59406,21.9709 0.0206,6.3267 -0.19721,6.9897 -3.49609,10.6412 -2.16326,2.3944 -5.72542,4.7709 -9.25,6.171 -3.15257,1.2524 -5.90002,2.4069 -6.10543,2.5657 -0.3581,0.2767 0.59876,2.2361 6.12736,12.5473 1.62149,3.0242 2.01857,4.4857 1.12566,4.1431 -3.42828,-1.3156 -0.83216,3.2379 5.24118,9.1929 6.505,6.3782 11.05713,9.1032 6.30359,3.7735 -1.33337,-1.495 1.76774,1.0925 6.89136,5.75 5.12361,4.6575 10.73591,9.4806 12.47178,10.7181 5.12087,3.6507 1.65219,2.5685 -4.31025,-1.3447 -7.14917,-4.6921 -22.34897,-17.0888 -27.68271,-22.5775 -2.31303,-2.3803 -5.48226,-6.5778 -7.04272,-9.3278 -6.5071,-11.4674 -6.52047,-11.4825 -10.25177,-11.5605 l -3.5,-0.073 4.46665,-1.3916 c 4.89751,-1.5258 4.45847,-1.7788 8.21605,4.7347 1.17693,2.0401 2.53678,3.464 3.02189,3.1642 1.00806,-0.623 -6.74537,-15.5873 -14.96022,-28.8736 -6.8486,-11.0765 -7.87485,-12.2695 -9.31549,-10.8288 -0.78054,0.7805 -0.19846,2.3133 2.07236,5.4571 5.83934,8.0843 10.89881,16.7706 9.44278,16.2119 -2.26149,-0.8678 -1.69626,1.1349 1.11323,3.9444 l 2.55726,2.5572 -5.63402,0.704 c -11.96701,1.4951 -29.15815,-3.1367 -34.58594,-9.3186 l -3.2261,-3.6744 0.59267,5.4736 c 0.39931,3.688 0.30079,4.7396 -0.302,3.2236 -1.21956,-3.067 -4.394664,-3.067 -3.63496,0 0.30653,1.2375 1.00827,4.05 1.55944,6.25 1.76788,7.0566 3.14551,13.8924 3.6276,18 1.15526,9.8436 1.65167,11.5491 3.28116,11.2728 1.61819,-0.2743 1.93251,0.7724 3.52149,11.7272 l 0.5802,4 -1.47896,-2.75 c -1.67102,-3.1071 -3.43094,-3.6272 -3.38348,-1 0.0462,2.5572 7.22534,15.5605 8.87774,16.0799 0.96427,0.3031 1.21103,-0.074 0.78138,-1.1934 -1.23523,-3.219 0.30805,-1.5589 2.4297,2.6135 1.18859,2.3375 3.91451,6.8375 6.05759,10 5.35741,7.9059 3.08696,7.2432 -3.42621,-1 z m 37.23905,-70.7389 c 0.67967,-0.819 1.62812,-1.2465 2.10768,-0.9501 0.47956,0.2963 2.69394,-1.1711 4.92083,-3.2611 2.84984,-2.6745 4.22561,-4.9104 4.64561,-7.5499 0.80909,-5.0847 -1.20954,-4.9287 -3.28315,0.2538 -1.61991,4.0485 -6.88367,9.4222 -8.3449,8.5191 -2.08119,-1.2863 -4.097,-7.6857 -3.47141,-11.0204 0.43079,-2.2963 0.27436,-3.5025 -0.45423,-3.5025 -0.61121,0 -1.11129,0.8673 -1.11129,1.9272 0,1.06 -1.6373,3.2768 -3.63844,4.9264 l -3.63845,2.9991 2.88845,4.5719 c 2.23322,3.5348 3.48448,4.5723 5.516,4.5737 1.44515,9e-4 3.18364,-0.6683 3.8633,-1.4872 z M 25.430383,1196.7789 c 1.95351,-2.9814 1.05296,-4.5627 -1.27354,-2.2362 -1.19225,1.1923 -2.23038,1.379 -3.97619,0.7152 -2.62412,-0.9976 -3.31579,0.6991 -1.16268,2.8522 1.94259,1.9426 4.63334,1.384 6.41241,-1.3312 z m -13.14932,-0.075 c 1.25951,-1.2595 1.3504,-1.9139 0.42134,-3.0333 -1.27127,-1.5318 -3.0506503,-1.4347 -3.0090903,0.1642 0.0139,0.5363 -1.41481,1.7437 -3.1750001,2.6831 l -3.2003401,1.7081 3.6785701,0.042 c 2.0938001,0.024 4.3704404,-0.6499 5.2845204,-1.564 z m -50.471451,-0.3677 c 1.055356,-0.6672 1.180064,-1.2546 0.426371,-2.0083 -0.753693,-0.7537 -1.600917,-0.4734 -2.896628,0.9583 -1.385902,1.5314 -1.489612,2.0199 -0.426372,2.0083 0.772744,-0.01 2.076226,-0.4396 2.896629,-0.9583 z m 41.0083605,-0.4531 c 0,-0.7847 -1.2375001,-2.0731 -2.75000011,-2.863 -1.51250009,-0.79 -4.83117019,-2.6299 -7.37482019,-4.0888 l -4.6248102,-2.6525 -1.66675,2.5438 c -2.263859,3.4551 -1.481078,4.2206 4.3157601,4.2206 3.5350001,0 5.7199202,0.6086 7.6582402,2.1333 3.1652801,2.4898 4.4423802,2.6929 4.4423802,0.7066 z m 35.4285715,-0.1447 c 2.13363,-2.1336 2.02601,-3.8492 -0.17857,-2.8468 -0.9625,0.4377 -3.2125,0.7428 -5.000001,0.6781 -3.44277,-0.1247 -4.01087,0.5793 -2.05,2.5401 1.68275,1.6828 5.363521,1.4937 7.228571,-0.3714 z m 12.82143,0.1794 c 2.66874,-2.0259 2.09646,-2.9272 -1.41289,-2.2254 -2.23964,0.448 -3.70092,0.1457 -5.00613,-1.0355 -2.18649,-1.9788 -3.26546,-1.2913 -2.3753,1.5133 0.95931,3.0225 5.83773,3.992 8.79432,1.7476 z m 9.81574,-0.6431 c 3.16507,-1.6939 2.21011,-2.821 -2.11673,-2.4983 -4.66442,0.3478 -6.02544,1.241 -3.92005,2.5725 1.9255,1.2177 3.66264,1.1964 6.03678,-0.074 z m -39.065741,-2.3043 c 0,-0.7368 -1.0125,-1.8539 -2.25,-2.4825 -1.2375,-0.6287 -4.95,-2.7364 -8.25,-4.6837 -3.3000003,-1.9474 -8.4750005,-4.8191 -11.50000061,-6.3816 -5.99372019,-3.096 -7.05271019,-2.8161 -9.88284039,2.6113 -1.05234,2.0181 -0.77682,2.4657 2.9755402,4.8345 3.5289701,2.2277 5.1081901,2.5769 10.7712803,2.3815 6.4755905,-0.2234 13.1252605,1.6155 14.6266605,4.0448 0.91557,1.4814 3.50936,1.2417 3.50936,-0.3243 z m -87.000003,-8.6921 c 4.675,-2.6325 14.575001,-7.9575 22.000001,-11.8332 12.725293,-6.6423 15.731833,-8.9943 10.687097,-8.3604 -4.704529,0.5911 -50.066182,26.8028 -49.097414,28.3703 0.331278,0.536 2.179065,0 4.248297,-1.2208 2.014111,-1.1932 7.487019,-4.3234 12.162019,-6.9559 z m 96.528913,-0.1685 c -6.69816,-12.9654 -14.95206,-25.7339 -16.65694,-25.7677 -0.89541,-0.018 -2.34726,-1.0447 -3.22632,-2.2822 l -1.5983003,-2.25 -2.5437501,3 c -3.5520501,4.1891 -11.8627404,16.4912 -11.3922103,16.8636 0.21374,0.1691 4.66361011,2.7149 9.8886103,5.6572 5.2250004,2.9423 9.8020304,5.798 10.1711904,6.3459 0.44517,0.6608 2.56899,0.6522 6.30703,-0.025 l 5.63585,-1.0215 1.56795,3.09 c 2.38869,4.7075 3.48786,5.8202 4.625691,4.6823 0.65663,-0.6566 -0.28368,-3.4626 -2.778801,-8.2923 z m 23.043671,3.0115 c 3.94956,-5.8124 14.572191,-19.8114 15.033091,-19.8114 0.47765,0 -4.84012,9.8937 -9.207561,17.1308 -3.99778,6.6244 -4.08714,7.1099 -1.2313,6.6887 1.60723,-0.237 3.5231,-2.902 7.418771,-10.3196 9.88954,-18.8301 10.52893,-20.6374 6.70755,-18.9599 -0.98622,0.433 -2.01813,0.833 -2.29313,0.8889 -1.6352,0.3325 -3.8618,2.8361 -11.452581,12.877 -4.65439,6.1567 -9.36637,12.3718 -10.47107,13.8113 -1.10471,1.4395 -1.73964,2.8861 -1.41097,3.2148 1.10281,1.1028 3.95617,-1.1778 6.9072,-5.5206 z m 44.427422,3.0953 c 0,-3.4889 -17.078051,-33.296 -19.325681,-33.7301 -2.34757,-0.4533 -2.0834,1.5956 0.67421,5.229 2.24484,2.9577 5.16562,7.9525 13.35869,22.8443 3.463431,6.2952 5.292781,8.2504 5.292781,5.6568 z m 69.555084,-9.1494 c -2.57095,-5.4179 -11.10912,-14.3562 -16.83482,-17.6237 -4.84796,-2.7666 -14.24192,-6.8429 -17.72026,-7.6893 -0.825,-0.2008 -2.5125,-0.6604 -3.75,-1.0213 -1.2375,-0.361 -2.25,-0.2544 -2.25,0.2367 0,0.4912 4.48702,3.0685 9.97116,5.7273 12.29204,5.9594 22.74738,13.9409 27.05479,20.6534 3.6938,5.7563 6.29597,5.5475 3.52913,-0.2831 z M 87.691625,1151.78 c 0.89449,-0.1742 2.75135,-0.3581 4.12635,-0.4087 5.403561,-0.1984 5.781611,-1.6764 1.53992,-6.0203 -2.1702,-2.2225 -4.52191,-4.0408 -5.22602,-4.0408 -1.25017,0 -6.3139,8.8493 -6.3139,11.0341 0,0.6669 0.83684,0.835 2.12365,0.4266 1.168,-0.3707 2.8555,-0.8166 3.75,-0.9909 z m 27.749895,109.9915 c -0.96498,-2.5147 -0.68031,-3.1636 0.49853,-1.1364 0.58369,1.0038 0.8506,2.0357 0.59313,2.2932 -0.25747,0.2574 -0.74872,-0.2631 -1.09166,-1.1568 z m -2.05925,-5.1682 c -0.54268,-1.4252 -0.42782,-1.5401 0.5598,-0.5598 0.68342,0.6783 0.99067,1.4852 0.68278,1.7931 -0.30789,0.3079 -0.86705,-0.2471 -1.24258,-1.2333 z m 22.93066,-19.0747 c -11.85474,-6.2116 -12.66639,-6.8379 -18.56135,-14.3229 -6.32132,-8.0264 -8.93249,-10.8956 -9.91572,-10.8956 -0.42471,0 -0.62016,2.1375 -0.43433,4.75 0.28053,3.9439 0.1949,4.2409 -0.50452,1.75 -0.46332,-1.65 -0.89564,-4.2263 -0.96072,-5.7252 -0.1096,-2.5246 0.0705,-2.6535 2.44679,-1.75 1.4108,0.5364 4.4483,1.0365 6.75,1.1114 2.30169,0.075 3.1724,0.3312 1.9349,0.5696 -2.11597,0.4075 -3.25699,2.2942 -1.3875,2.2942 0.47438,0 3.15306,3.0804 5.95263,6.8452 5.80871,7.8116 9.05389,10.5161 19.35716,16.1324 4.03024,2.1969 6.65271,3.9864 5.82771,3.9768 -0.825,-0.01 -5.55227,-2.1408 -10.50505,-4.7359 z m -27.35112,-1.7185 c -0.10581,-1.1 -0.39299,-4.475 -0.63819,-7.5 -0.43193,-5.3287 -0.41433,-5.3754 0.56525,-1.5 0.55608,2.2 0.84327,5.575 0.63819,7.5 -0.20508,1.925 -0.45944,2.6 -0.56525,1.5 z m 58.78048,-2.25 -2.42431,-2.75 2.75,2.4244 c 2.57029,2.2658 3.20859,3.0756 2.42431,3.0756 -0.17912,0 -1.41662,-1.2375 -2.75,-2.75 z m -245.743223,-17.2865 c 0.185088,-1.1762 2.207146,-3.0924 4.818903,-4.5665 2.475,-1.3969 3.626492,-1.8327 2.55887,-0.9684 -1.825027,1.4775 -1.832087,1.5714 -0.118034,1.5714 1.002703,0 3.338711,-0.9367 5.19113,-2.0815 1.852419,-1.1449 3.368034,-1.8701 3.368034,-1.6117 0,0.5974 -11.895961,8.0661 -14.318903,8.9899 -1.433752,0.5466 -1.751376,0.2643 -1.5,-1.3332 z m 213.068913,-3.6528 c 0.9625,-0.2515 2.5375,-0.2515 3.5,0 0.9625,0.2516 0.175,0.4573 -1.75,0.4573 -1.925,0 -2.7125,-0.2057 -1.75,-0.4573 z m -232.250011,-5.6882 c 0,-0.2077 0.7875,-0.9952 1.75,-1.75 1.586056,-1.2439 1.621426,-1.2085 0.377555,0.3775 -1.306369,1.6658 -2.127555,2.1955 -2.127555,1.3725 z m 32.000001,-0.016 c 0,-0.2161 0.698372,-0.661 1.551938,-0.9885 0.889925,-0.3415 1.291322,-0.1739 0.940983,0.393 -0.587258,0.9502 -2.492921,1.4055 -2.492921,0.5955 z m 86.058223,-1.6971 c -6.72104,-1.318 -7.21955,-1.8932 -1.05822,-1.2211 5.89461,0.6431 11.45983,2.2297 7.5,2.1383 -1.1,-0.025 -3.9988,-0.4381 -6.44178,-0.9172 z m 9.75428,0.407 c 0.72187,-0.2888 1.58437,-0.2533 1.91667,0.079 0.33229,0.3323 -0.25834,0.5686 -1.3125,0.5252 -1.16495,-0.048 -1.4019,-0.2849 -0.60417,-0.6042 z m -67.312502,-16.3169 c 0.995486,-1.1 2.034975,-2 2.309975,-2 0.275,0 -0.314489,0.9 -1.309975,2 -0.995486,1.1 -2.034975,2 -2.309975,2 -0.275,0 0.314489,-0.9 1.309975,-2 z"
           id="path3596"
           inkscape:connector-curvature="0" />
      </g>
      <g
         id="g3654"
         transform="translate(-154.88719,-35.743198)">
        <path
           inkscape:connector-curvature="0"
           style="fill:#ffffff;fill-opacity:1"
           d="m 643.18971,482.33197 c -0.48712,-0.8197 -1.03158,-1.35258 -4.49938,-4.4037 -1.96059,-1.72502 -2.62691,-1.69261 -9.99232,0.48606 -0.62529,0.18496 -1.16995,0.30323 -1.21035,0.26282 -0.10076,-0.10076 0.21034,-0.6537 0.76647,-1.36229 0.81359,-1.03663 1.7686,-1.57864 5.54267,-3.14573 2.45411,-1.01901 3.47907,-1.52961 3.87272,-1.92924 0.12527,-0.12718 0.59419,-0.9444 1.04205,-1.81604 2.04491,-3.97989 2.70317,-4.96099 5.42287,-8.08253 2.34116,-2.68706 7.78794,-8.05545 11.58492,-11.41822 0.29054,-0.25731 0.55203,-0.49379 0.58108,-0.52551 0.0291,-0.0317 0.7747,-0.6861 1.65699,-1.45417 2.39418,-2.08425 2.76874,-2.6066 2.8614,-3.99055 0.11134,-1.66299 -0.76891,-3.18553 -2.86926,-4.9629 -0.50761,-0.42955 -0.60924,-0.56804 -0.55116,-0.75105 0.14287,-0.45015 1.13842,-0.61408 2.73552,-0.45045 1.92749,0.19749 3.64674,0.94949 7.09808,3.10471 1.10223,0.6883 2.21637,1.34538 2.47587,1.46017 0.59367,0.26261 1.08446,0.22757 4.8278,-0.34471 7.49064,-1.14516 12.09466,-1.09858 16.72164,0.16919 5.58334,1.52979 11.1365,5.39904 12.9353,9.01285 0.42466,0.85314 0.44329,0.9318 0.44753,1.89009 l 0.004,0.99992 1.42187,1.27921 c 2.45008,2.20428 2.53119,2.29237 2.53119,2.74866 0,0.75239 -0.56704,1.33099 -1.30439,1.33099 -0.20556,0 -0.93514,-0.1703 -1.62128,-0.37846 -5.1381,-1.55873 -6.08277,-1.79808 -8.49109,-2.15143 -2.14388,-0.31455 -4.72959,-0.53407 -6.29083,-0.53407 l -1.39777,0 -0.98599,0.91029 c -1.725,1.59255 -2.77782,2.22966 -4.17298,2.52527 -1.31979,0.27964 -3.40648,0.12335 -4.26236,-0.31926 -0.30963,-0.16012 -0.32219,-0.18783 -0.18255,-0.40269 0.0825,-0.12691 0.49553,-0.48035 0.9179,-0.78543 l 0.76794,-0.55468 -0.46724,0 c -1.23332,0 -7.11667,0.66083 -9.87599,1.1093 -4.33252,0.70415 -12.41114,2.76933 -16.40967,4.19489 -3.37383,1.20284 -6.50213,3.2776 -9.50858,6.30628 -2.71415,2.73422 -4.30641,4.73937 -4.16208,5.24133 0.0334,0.11622 0.38895,0.78633 0.79007,1.48914 1.31137,2.29767 1.69509,3.30994 1.83855,4.8501 0.0379,0.40676 0.0296,0.84458 -0.0183,0.97293 -0.0778,0.2082 -0.1394,0.14556 -0.57124,-0.58109 z"
           id="path3636" />
        <path
           inkscape:connector-curvature="0"
           d="m 643.18971,482.33197 c -0.48712,-0.8197 -1.03158,-1.35258 -4.49938,-4.4037 -1.96059,-1.72502 -2.62691,-1.69261 -9.99232,0.48606 -0.62529,0.18496 -1.16995,0.30323 -1.21035,0.26282 -0.10076,-0.10076 0.21034,-0.6537 0.76647,-1.36229 0.81359,-1.03663 1.7686,-1.57864 5.54267,-3.14573 2.45411,-1.01901 3.47907,-1.52961 3.87272,-1.92924 0.12527,-0.12718 0.59419,-0.9444 1.04205,-1.81604 2.04491,-3.97989 2.70317,-4.96099 5.42287,-8.08253 2.34116,-2.68706 7.78794,-8.05545 11.58492,-11.41822 0.29054,-0.25731 0.55203,-0.49379 0.58108,-0.52551 0.0291,-0.0317 0.7747,-0.6861 1.65699,-1.45417 2.39418,-2.08425 2.76874,-2.6066 2.8614,-3.99055 0.11134,-1.66299 -0.76891,-3.18553 -2.86926,-4.9629 -0.50761,-0.42955 -0.60924,-0.56804 -0.55116,-0.75105 0.14287,-0.45015 1.13842,-0.61408 2.73552,-0.45045 1.92749,0.19749 3.64674,0.94949 7.09808,3.10471 1.10223,0.6883 2.21637,1.34538 2.47587,1.46017 0.59367,0.26261 1.08446,0.22757 4.8278,-0.34471 7.49063,-1.14516 12.09465,-1.09858 16.72163,0.16919 5.58335,1.52979 11.1365,5.39904 12.93531,9.01285 0.42466,0.85314 0.44328,0.9318 0.44753,1.89009 l 0.004,0.99992 1.42187,1.27921 c 2.45008,2.20428 2.53119,2.29237 2.53119,2.74866 0,0.75239 -0.56704,1.33099 -1.30439,1.33099 -0.20556,0 -0.93514,-0.1703 -1.62128,-0.37846 -5.1381,-1.55873 -6.08277,-1.79808 -8.49109,-2.15143 -2.14388,-0.31455 -4.72959,-0.53407 -6.29083,-0.53407 l -1.39777,0 -0.98599,0.91029 c -1.725,1.59255 -2.77782,2.22966 -4.17298,2.52527 -1.31979,0.27964 -3.40648,0.12335 -4.26235,-0.31926 -0.30964,-0.16012 -0.3222,-0.18783 -0.18256,-0.40269 0.0825,-0.12691 0.49553,-0.48035 0.9179,-0.78543 l 0.76794,-0.55468 -0.46724,0 c -1.23332,0 -7.11667,0.66083 -9.87599,1.1093 -4.33252,0.70415 -12.41114,2.76933 -16.40967,4.19489 -3.37383,1.20284 -6.50213,3.2776 -9.50858,6.30628 -2.71415,2.73422 -4.30641,4.73937 -4.16208,5.24133 0.0334,0.11622 0.38895,0.78633 0.79007,1.48914 1.31137,2.29767 1.69509,3.30994 1.83855,4.8501 0.0379,0.40676 0.0296,0.84458 -0.0183,0.97293 -0.0778,0.2082 -0.1394,0.14556 -0.57124,-0.58109 z m -9.24102,-7.097 c 0.58876,-0.20004 1.15754,-0.32083 1.51077,-0.32083 0.31841,0 0.71324,-0.0759 0.90155,-0.17326 0.37145,-0.19209 1.46672,-1.20163 1.77956,-1.64028 0.1824,-0.25575 0.10147,-0.23018 -0.8829,0.27901 -0.59605,0.30832 -1.95176,0.92751 -3.0127,1.37597 -1.06093,0.44847 -1.95199,0.85265 -1.98013,0.89818 -0.0729,0.1179 0.58795,-0.0464 1.68385,-0.41879 z m 19.8088,-12.03528 c 2.07013,-1.02189 2.71812,-1.283 5.12407,-2.06473 6.6831,-2.17145 10.11095,-3.10513 14.0589,-3.82934 1.12262,-0.20594 1.96291,-0.28394 3.48647,-0.32365 2.30467,-0.0601 3.13657,0.0517 4.90002,0.65844 0.59004,0.20301 1.27406,0.36895 1.52003,0.36877 0.69244,-5.1e-4 2.13412,-0.27662 4.69001,-0.89816 2.7898,-0.67842 4.31415,-0.8513 6.58647,-0.74695 2.11498,0.0971 3.57276,0.32581 4.75428,0.74582 0.55204,0.19624 1.55043,0.5537 2.21868,0.79435 2.47547,0.8915 5.16669,1.50459 5.05075,1.15062 -0.0763,-0.23283 -0.92462,-0.84045 -3.25469,-2.33113 -1.19122,-0.76209 -3.82984,-2.51371 -5.86362,-3.89249 -5.91481,-4.00989 -7.21829,-4.84645 -7.86242,-5.04598 -0.90486,-0.2803 -4.51863,-0.25187 -7.77392,0.0612 -2.99942,0.28843 -3.51727,0.37819 -3.98175,0.69014 -0.47544,0.3193 -0.53186,0.85098 -0.13975,1.31698 0.47848,0.56866 1.30703,0.80426 5.28367,1.50248 2.81602,0.49444 3.48398,0.65043 4.07403,0.95146 0.59327,0.30268 0.54259,0.59381 -0.16495,0.94759 -0.47757,0.23879 -0.64989,0.26369 -1.79607,0.25955 -1.46729,-0.005 -2.19778,-0.17556 -4.96559,-1.15739 -1.88286,-0.66791 -2.93009,-1.14543 -4.31709,-1.96853 -1.52409,-0.90444 -2.16161,-0.84583 -5.56126,0.51125 -3.03299,1.21072 -7.85305,3.52525 -9.08815,4.36402 -1.59639,1.08411 -4.45766,3.61683 -7.57828,6.70807 -2.09319,2.07348 -2.62225,2.72977 -2.00737,2.49011 0.13074,-0.051 1.30413,-0.61907 2.60753,-1.26248 z m 46.59936,-10.59096 c 0,-0.0649 -0.18148,-0.29958 -0.40331,-0.52141 -0.41142,-0.41144 -0.8411,-0.59482 -1.13207,-0.48316 -0.14557,0.0559 -0.14507,0.0959 0.005,0.38585 0.092,0.17795 0.31949,0.41634 0.50553,0.52978 0.36615,0.22326 1.02497,0.28043 1.02497,0.0889 z m -32.93746,-6.21553 c 2.62754,-1.06805 5.35862,-1.98327 6.32882,-2.12088 0.41112,-0.0583 0.82545,-0.14979 0.92073,-0.20329 0.35627,-0.20007 -0.14411,-0.22523 -1.23138,-0.0619 -1.36372,0.20484 -3.31019,0.21121 -3.96877,0.013 -0.27181,-0.0818 -0.72931,-0.29961 -1.01668,-0.48402 -0.28737,-0.18441 -0.5681,-0.30709 -0.62385,-0.27264 -0.0557,0.0345 -0.18283,0.3117 -0.2824,0.61609 -0.0996,0.30439 -0.26614,0.72304 -0.37015,0.93032 -0.19593,0.39048 -1.09765,1.28143 -2.13145,2.10599 -0.77906,0.62138 -0.84548,0.7904 -0.2079,0.52903 0.27348,-0.11212 1.43584,-0.58537 2.58303,-1.05168 z"
           style="fill:#202022;fill-opacity:1"
           id="path3558" />
      </g>
    </g>
  </g>
</svg>
